/* XPM */
static char *graphic[] = {
"64 64 463 2",
".. c #373045",
"., c #2F2E2F",
".- c #2D2D2D",
".* c #3F3545",
".a c #574065",
".b c #564064",
".c c #574165",
".d c #4E3C5D",
".e c #39314B",
".f c #39314C",
".g c #342F3C",
".h c #2F2E2E",
".i c #4B3B56",
".j c #574164",
".k c #48365E",
".l c #3C2F56",
".m c #34303E",
".n c #2E2E2E",
".o c #333035",
".p c #533F60",
".q c #574064",
".r c #4B385F",
".s c #3D2F5A",
".t c #3E2F5A",
".u c #3E2F5B",
".v c #3B3052",
".w c #2F2E30",
".x c #3C3441",
".y c #4A3B54",
".z c #564065",
".A c #564064",
".B c #4E3C5D",
".C c #443754",
".D c #39314B",
".E c #363044",
".F c #332F39",
".G c #4B3B55",
".H c #574065",
".I c #553F64",
".J c #4C3960",
".K c #43335C",
".L c #39314B",
".M c #34303E",
".N c #2F2E2E",
".O c #3B3440",
".P c #423748",
".Q c #413648",
".R c #423748",
".S c #3A3341",
".T c #332F3C",
".U c #342F3C",
".V c #302E32",
".W c #333035",
".X c #533F60",
".Y c #3C3054",
".Z c #3A314F",
".0 c #2F2E30",
".1 c #4A3B54",
".2 c #564065",
".3 c #302E30",
".4 c #4E3C59",
".5 c #574166",
".6 c #533E63",
".7 c #423554",
".8 c #38304C",
".9 c #373147",
".@ c #513C62",
".# c #40305B",
".; c #3D3056",
".: c #302E2F",
".= c #343036",
".+ c #4C3B56",
".% c #584166",
".$ c #543F63",
".( c #453755",
".) c #322F39",
".[ c #4C3960",
".] c #40315B",
",. c #3E2F59",
",, c #3D2F57",
",- c #302E30",
",* c #4D3C58",
",a c #41315B",
",b c #3E2F5A",
",c c #3C3055",
",d c #373046",
",e c #2F2E30",
",f c #4E3A61",
",g c #3F2F5A",
",h c #3E2F5A",
",i c #342F3D",
",j c #523E5F",
",k c #554063",
",l c #564064",
",m c #543F63",
",n c #3E344F",
",o c #34303E",
",p c #333034",
",q c #533F61",
",r c #513D62",
",s c #3F305A",
",t c #41315B",
",u c #312F36",
",v c #302E30",
",w c #574065",
",x c #3C3055",
",y c #39314B",
",z c #2F2E30",
",A c #543E64",
",B c #4D3960",
",C c #342F3D",
",D c #343136",
",E c #543F61",
",F c #503C62",
",G c #45345C",
",H c #3E3056",
",I c #3A304F",
",J c #39314A",
",K c #35303F",
",L c #302F30",
",M c #3A333F",
",N c #503B62",
",O c #413456",
",P c #3A304E",
",Q c #353041",
",R c #47355E",
",S c #3A314E",
",T c #45345D",
",U c #3F305B",
",V c #2E2D2D",
",W c #493A53",
",X c #4A3B53",
",Y c #3C3347",
",Z c #363042",
",0 c #322F37",
",1 c #46355D",
",2 c #3B3052",
",3 c #373146",
",4 c #543F61",
",5 c #543E63",
",6 c #35303F",
",7 c #2F2E2F",
",8 c #312F31",
",9 c #302E31",
",@ c #553F64",
",# c #543E63",
",; c #43325C",
",: c #3A304F",
",= c #342F3D",
",+ c #543F61",
",% c #4F3B61",
",$ c #35303F",
",( c #513E5D",
",) c #40354E",
",[ c #383147",
",] c #383148",
"-. c #332F3A",
"-, c #302E30",
"-- c #533E63",
"-* c #40305B",
"-a c #3A314D",
"-b c #574166",
"-c c #40305B",
"-d c #3C2F56",
"-e c #3B3051",
"-f c #342F3E",
"-g c #574164",
"-h c #3D3056",
"-i c #3B3050",
"-j c #312F32",
"-k c #423749",
"-l c #4A385F",
"-m c #403257",
"-n c #373044",
"-o c #46384E",
"-p c #523E5F",
"-q c #3D2F56",
"-r c #3D2F58",
"-s c #34303F",
"-t c #4E3B61",
"-u c #3A314E",
"-v c #3D3056",
"-w c #3E3544",
"-x c #47365E",
"-y c #39314A",
"-z c #312F35",
"-A c #2F2E2E",
"-B c #353137",
"-C c #3E2F59",
"-D c #333034",
"-E c #4F3B62",
"-F c #3C3053",
"-G c #323034",
"-H c #38323B",
"-I c #35303A",
"-J c #322E38",
"-K c #3D2E5A",
"-L c #44335C",
"-M c #503C62",
"-N c #46345D",
"-O c #3C3054",
"-P c #3B3051",
"-Q c #343136",
"-R c #3E3543",
"-S c #3E3543",
"-T c #383141",
"-U c #342E3E",
"-V c #332F39",
"-W c #44335C",
"-X c #3E2F59",
"-Y c #3D2F56",
"-Z c #533F60",
"-0 c #47365E",
"-1 c #3F2F5A",
"-2 c #574165",
"-3 c #42325C",
"-4 c #403647",
"-5 c #47355F",
"-6 c #3C2F57",
"-7 c #46355D",
"-8 c #493A52",
"-9 c #553F62",
"-@ c #3F305B",
"-# c #38314A",
"-; c #332F3C",
"-: c #554064",
"-= c #47355E",
"-+ c #3B3050",
"-% c #513C62",
"-$ c #46355E",
"-( c #3C3055",
"-) c #523D62",
"-[ c #44345D",
"-] c #503C61",
"*. c #43335C",
"*, c #3E3057",
"*- c #4E3A61",
"** c #342F3D",
"*a c #543F62",
"*b c #3D334F",
"*c c #363139",
"*d c #4D3C57",
"*e c #533E61",
"*f c #443755",
"*g c #553F63",
"*h c #4A385F",
"*i c #403257",
"*j c #3A3050",
"*k c #2E2E2E",
"*l c #3D3442",
"*m c #44384C",
"*n c #44374B",
"*o c #44384B",
"*p c #3B3344",
"*q c #553F63",
"*r c #533F61",
"*s c #463856",
"*t c #3B324D",
"*u c #383149",
"*v c #363043",
"*w c #322F33",
"*x c #343035",
"*y c #322F34",
"*z c #413647",
"*A c #4D3B5C",
"*B c #2F2E2F",
"*C c #483A51",
"*D c #553F62",
"*E c #453754",
"*F c #383049",
"*G c #383149",
"*H c #413647",
"*I c #343036",
"*J c #3B343F",
"*K c #3B333F",
"*L c #38323D",
"*M c #322F37",
"*N c #322F38",
"*O c #302E33",
"*P c #3D2F57",
"*Q c #342F3E",
"*R c #483A51",
"*S c #3D334E",
"*T c #332F39",
"*U c #44335D",
"*V c #41315C",
"*W c #4D3A60",
"*X c #3D3152",
"*Y c #39304D",
"*Z c #47355E",
"*0 c #49375E",
"*1 c #40315B",
"*2 c #523D62",
"*3 c #3E2F5A",
"*4 c #3D2F59",
"*5 c #323033",
"*6 c #4C3B57",
"*7 c #3F3059",
"*8 c #574064",
"*9 c #3B3052",
"*@ c #423653",
"*# c #38314B",
"*; c #38304A",
"*: c #342F3E",
"*= c #333037",
"*+ c #43335D",
"*% c #3C2F55",
"*$ c #403646",
"*( c #4D3C58",
"*) c #4C3B5B",
"*[ c #413552",
"*] c #322F37",
"a. c #3A314D",
"a, c #36313C",
"a- c #312E34",
"a* c #39314C",
"aa c #4C3B5A",
"ab c #383148",
"ac c #2E2E2E",
"ad c #3C3053",
"ae c #34303D",
"af c #4D3A61",
"ag c #3D2F58",
"ah c #302F31",
"ai c #322F33",
"aj c #312F33",
"ak c #302E31",
"al c #2F2E2E",
"am c #503D5C",
"an c #3E305A",
"ao c #4D3A61",
"ap c #533E63",
"aq c #37323A",
"ar c #47394F",
"as c #46394F",
"at c #47394F",
"au c #42374B",
"av c #353040",
"aw c #513D62",
"ax c #363138",
"ay c #45384C",
"az c #533E62",
"aA c #4A3A5A",
"aB c #332F3B",
"aC c #353136",
"aD c #49375F",
"aE c #3E2F58",
"aF c #46355D",
"aG c #3D2F5A",
"aH c #453755",
"aI c #46345D",
"aJ c #3C3053",
"aK c #39314C",
"aL c #523D63",
"aM c #49375F",
"aN c #3F2F5A",
"aO c #3A314F",
"aP c #3C2F55",
"aQ c #45345D",
"aR c #3D2F59",
"aS c #34303F",
"aT c #523D63",
"aU c #41315A",
"aV c #3B314F",
"aW c #3D2E59",
"aX c #564065",
"aY c #39314C",
"aZ c #574166",
"a0 c #39304E",
"a1 c #43374A",
"a2 c #4F3D5B",
"a3 c #4A3A59",
"a4 c #3F3450",
"a5 c #373147",
"a6 c #3B3050",
"a7 c #4F3D5B",
"a8 c #3F3544",
"a9 c #38314A",
"a@ c #342F3C",
"a# c #4B3860",
"a; c #3F3544",
"a: c #312F32",
"a= c #2F2E2F",
"a+ c #37323A",
"a% c #44384B",
"a$ c #44384B",
"a( c #3F3547",
"a) c #312F36",
"a[ c #3B343F",
"a] c #413647",
"b. c #393241",
"b, c #332F3B",
"b- c #37323A",
"b* c #44374B",
"ba c #44384C",
"bb c #353040",
"bc c #302E33",
"bd c #46355E",
"be c #333036",
"bf c #312F34",
"bg c #443754",
"bh c #493A52",
"bi c #554063",
"bj c #453755",
"bk c #3F3159",
"bl c #3B3053",
"bm c #433654",
"bn c #3C334E",
"bo c #3F305A",
"bp c #513C63",
"bq c #553F62",
"br c #4B395F",
"bs c #3D3153",
"bt c #39304D",
"bu c #45384D",
"bv c #543F64",
"bw c #48365F",
"bx c #403258",
"by c #533E5F",
"bz c #533F5F",
"bA c #403550",
"bB c #373048",
"bC c #3B3052",
"bD c #302F32",
"bE c #49375E",
"bF c #3A314E",
"bG c #3C3054",
"bH c #47394F",
"bI c #3B3344",
"bJ c #322F36",
"bK c #513C63",
"bL c #423456",
"bM c #4E3A60",
"bN c #574066",
"bO c #533E64",
"bP c #46355F",
"bQ c #42325B",
"bR c #3F305A",
"bS c #3D3056",
"bT c #363139",
"bU c #3C3248",
"bV c #362F43",
"bW c #34303D",
"bX c #2E2E2E",
"bY c #3D2E5A",
"bZ c #322F35",
"b0 c #2E2D2E",
"b1 c #543F62",
"b2 c #47355C",
"b3 c #3B2F54",
"b4 c #4D3A60",
"b5 c #423749",
"b6 c #4F3D5A",
"b7 c #322F38",
"b8 c #4E3B61",
"b9 c #513D61",
"b@ c #3C324F",
"b# c #4B385F",
"b; c #43325C",
"b: c #403646",
"b= c #4B3A5A",
"b+ c #403551",
"b% c #312F36",
"........,u.h.,.h-.,d..................................,Q.,.,.,.0*v............................,d.g.h.,.hbf......................",
".,.w.3,-,v,z,e.0-,.3-,.3,-,v,v,-.3-,.3-,.3,e,z,z,e.3-,.3.w.0,e,z,v,-.3-,.3-,.3,-,v,v,e.0a=.0-,.3,-,z,z,e.3-,.3-,.3,-,v,v,-.3-,.3",
".-.x.4,*,*,*,*,*,*,*,*,*,*,*,*,*,*,*,*,*-8.3.,.,.3-8,*,*,*,*,*,*,*,*,*,*,*,*,*,*.4a1,V.,.n.=*6,*,*,*,*,*,*,*,*,*,*,*,*,*,*,*,*,*",
".*.y.5.H,w,w.H.a.H.a.H-E-M-2,w.H.a.H.a.H*r*z*I*I*z*r.H.a.H.a.H.zafap.c.H.caL*-aXaZa2a8a:a+ba.A.a.H,w,w.H.a.H.caL*-aX,w,w.H.a.H.a",
".a.z.b.6.6.$.b,#--.6--,;-N.$.b.b-:--.6*g.b.a*J*J.a.b*g.6---:,@,r,U.r*q,l.$aM.#-),@.b-9*xa%.%,l.$.6,#.b.$.6--,#aM.#-),@.b.b,#--.6",
".b.A.6,a,s,R.I,;-*.#-*.t,g-3.$-g,F-*,s*h.q,l*K*K,l.q*h,s-*.@,f,U.t,g-N.A*UaN.t-@,%.q,E*x*n.a.A-Nbo-3*qbE,s-*.#bR.t-@,%.j.I,;-*.#",
".c.B.7,b.t,t,1,s,h.t,h-F-O-1-7-=-[,h.t*i*s,l*J*J,l*s*i.t,h,T*+.t.t,b.]aF.#,h.t,b,Oa3*D*xa$.$bgbk,b,s-7,a.t,h.tbS-e-X-L,R,1,s,h.t",
".d.C.8,c,..t.s.t,b,.-v-a-i.t.s.s.t,b,,*j*t*A*L*L*A*t*j,,,b-6*%.;.t.t.taG.t,b,..;a0a4aa,pa(aA,ybl-r.t.s.t.t,b,,a6-a,..t.s.s.tag,c",
".e.D.e.D,x,b,h,.,h,,.D.e-P,b-X,h.t-C-u.D.e.D*M*M.D.e.D-u-C.Z.Da*ag-C,.-C.t,h,,aY,y,ya9.V,o.f.D.e-P,b,b,h,.-C-u.D-a-C-X,b,h.t,2.e",
".f.e.e.e.f.v.t,:-a-a.e.e.f-a-a,c,,-a.e.e.e.f*N*N.f.e.e.e-a.f.e.e-a-a-a-u-r,c-a.e.e.e,J.V.m.f.e.e.f.Z,.-F-a-a.e.e.e-a-a.v.t,:.f.e",
".g.E.f.D,y,S,2.f.L.e.L.e.D,y,y-+-e.L.e.L*u,o*O*O,o*u.L.e.L.e.D,y,y.D.e.L-eaO.e.Da*a5a@,9a)bb.L.e.Da*bCbF.e.L.e.L.e.D,y,S,2.f.L.e",
".h.F.9,d,d,d,3,d,d,d,d,d,d,d,d,d,3,d,d,d*v.0.,.,.0*v,d,d,d,d,d,d,d,d,d,d,3,d,d,d.9.m.h.,.hbc..,d,d,d,3,d,d,d,d,d,d,d,d,d,3,d,d,d",
".,.w.0,e,z,z,e.0.w.0.w.0,e,z,z,e.0.w.0.w.0*B,7,7*B.0.w.0.w.0,e,z,z,e.0.w.0.w.0,e,z,z*B.,a=.,.w.0,e,z,z,e.0.w.0.w.0,e,z,z,e.0.w.0",
".i.G.i.+.+.G.G.G.+-o.,.,.h,8-8.i.G.G.G.G.i.+.+.G.i.G.G.G.G.+*$,V.,,Vax.G.G.G.G.G.G.+.+.i.G.i.G.+.+.G.G.G.G.G*x.n.,b0b5.+.G.G.G.G",
".a.H.2,f,A.c,w.a-b-p-w-G-Q-4-9,w.a.H.a.H.2,f,A.c,w.a.H.a.H.5*(.xahaqay.H.a.H.a,w.c,A,f.2.H.a.H,Nbp.c.a,w.a.Aa1bT,8*lb6.5,w.a.H.a",
".b.I.@,g,B.$,m.$,m.$,l-H-R.a.$,m.$,l.$,m.@,g,B,@,l.$,m.$,m-:.z.p*war.5,l.$,m.$,l,@,B,g.@.I.b,m,;,1.$.$,m.$,mbNa%*xb1,@.$,m.b.I.$",
".j.J.#.t.#.].].]-c,T,l-H-S,@-3.#-7,l,T-c.#.t,U.k-:*.*1.],a.@.c-p*was.c,l,T-c*.-:.k,s.t.#.J.6,a-1,s.].].].],abOa%*x,+.k.#,t,#b#.#",
".k.K.t,h,b,b,h.v-d.#-x-I-T-5-@,h.]-x.#,h,.-P*P*V*Z,U,h-r-P.7*)-ZaiatazaH*XaP,U*Z*V,b,h.t.Kbd,h.t,h,b,bbG-F,hbPbUbZb2*V,b,h,Rb;.t",
".l.l.;.;.;.;.;.f-e-q.l-J-U-6-q.;-q.l-q-q,c.e.v-q.l-q-q.Y.e*;*[aaajauaA*#,J-i-q.l-q,,.t.t-r.l-q.;.;.;-q,:-a.;,,bVa-b3-q.;-q.l.l.;",
".e.L.e.D,y,y.D.e.L.e-y-z-V,y,y.D.e.L.e.L.e.D,y,y.D.e.L.e.L.e.Dabakav.e.L.e.L.e.D,ya6,h.t*9.e.L.e.D,y,y.D.e.L.ebW.V*G,y,y.D.e.L.e",
".f.f.f.f.f.f.f.f.f,[-z.0,9,0-#.f.f.f.f.f.f.f.f.f.f.f.f.f.f.f*va-.,.VaB.f.f.f.f.f.f-a.Z.Z-a.f.f.f.f.f.f.f.f.e.F.V.0bf-n.f.f.f.f.f",
".m.M.m,i,C,C,i,=-f-.-A.h.N,7-;,i,=**.m.M.m,o*Q,C,i,=**,=***:*]acal*k.V**,=**,=,i,C,C,i.m.M.m.M*:,i,C,C,i,=**,9bX.h*kb7*Q,i,=.M.m",
".h.h.:.=,D,D,D,D,D,D-B-B-B-B,D,D,D.=.3.h.h.h,p,D,D,D,D,D,D,D,D-B-B-BaC,D,D,D,D,D,D,D.=.:.h.h.h,p,D,D,D,D,D,DaC-B-B-B,D,D,D,Da:.h",
".,.N.=,j,E,E,4,+,4,+,4,+,4,E,E,4,+.X*c*k.,.N*R*g,4,+,4,+,4,+,4,E,E,4,+,4,+,4,+,4,E,E,j.=.N.,*B.1bq,E,E,4,+,4,+,4,+,4,E,E,4-9b:,V",
".n.O.+,k.b.b.b.q-g.6,1,T.[.j.b.b.b,l*d*l*w*C-p.a.q.q,l.b*8.q.q.q.b.q-)aI,T,f.j.b.b.b,k.+a[*xbh.p.b.q.b.b.q,laDaQ.k.b.b.b.q.ba2,W",
".n.P.%,l,F,F,l,%,f.r,b-K-W,%-:-%-],l.%*m*x*D.a.6,f*-*2*q,f*-,f,%-:awaD,b-KaQ,%,l,F,F,l.%a]ax,l.b--,%-:aw*-bM,tbY.#b4,#,#b8,@,w.a",
".n.Q.a,m,G,T,5,t,h.t-C,.-X.#.6-$*.*a.a*n*x,E,k*W,b.s*h.@,h,.-X.#.6-=*4-C,.aRaU,5,T,G,m.a*zaxbi,kbr.#.6-=-K,h,.-C,.,b*-*-bob9bi.b",
".n.R.$,n,H,U,t.t.t-r-a.f.v.t,t,U*,*b*e*o*x-9.(*X.t.t.#,t.t-i.v.u,t,U,,-a-a.faV,t,U,H,n.$*Hax,kbmbs.u,t,s.t.t-i.f-u,..].#.tb@b=.c",
".n.S.(.D,I,x,h.t-h-i.L-e-Y,b,b-(-i.L*f*p*y*E*S*Y,2,.*3*4*9.fa.ad-X,haEaJ-FaJ.Y,h,x,I.D.(b.bebjbnbtad-X,h-r*9.faO,c,h,b*P-P.fb+*s",
".h.T.e.e,J.Z,,,,-i,J.e.Y,,,,,,,:,J.e.e,=.V*F.e.e.e,c,,.Y.e.e.e.f.;,,,,,,.t.t.t,,.Z,J.e.eaBa--#.e.e.f.;,,.Y.e.e-e,,,,,,-F.e.e.e-#",
".h.U.e.D,y,y.D.e.L.e.L.e.D,y,y.D.e.L.e.M.V*G,y,y.D.e.L.e.L.e.D,y,y.D.eaK,,*3-raY,y,y.D.eb,bf-y.e.D,y,y.D.e.L.e.L.e.D,y,y.D.e.L.e",
".,.V.).e.f.f.f.f.f.f.f.f.f.f.f.f.f.e-..V.0-z...f.f.f.f.f.f.f.f.f.f.f.f.f.Z.Z.Z.f.f.f.e.).V.0,u,d.f.f.f.f.f.f.f.f.f.f.f.f.f.fbb-z",
".,.N.0,o,K,K,6,$,6-s,6,$,6,K,K,6,$,o,9.N.,.N*T,K,6,$,6,$,6,$,6,K,K,6,$,6-saS-s,6,K,K,o.0.N.,.NaB,6,K,K,6,$,6,$,6,$,6,K,K,6,$b%.n",
".o.W.o,p,L.h.,.h-j.o-D,p,p,p,p,p,p-D.o.W.o.o.o,p,p,p.W*5,7.,.h.,,p,p,p-D,p-D,p,p,p,p,p.o.W.o.W.oa:.h.,.h.3-D,p-D,p,p,p,p,p,p.W.o",
".p.X.p,q,M,V,7,V-k,+.X.p-Z.p.p-Z.p.X.p.X.p-Z.p.p-Z.p,4*6,e.,,7*wam-Z.p.X.p.X.p-Z.p.p-Z.p.X.p.X,+bu.n.,ac-H.X.p.X.p-Z.p.p-Z.p.X.p",
".q.q.q.b.a,W,8,(.b.b.b-L-0.j.q.b.b.q.q.q.q.b.j,%,s.6.b.b.b-H-S.a.b.b.q.q.b.b.6,s,%.j.q.b.b.q.q.b.b-p*was.a.b.j.r,t-:.q.b.b.q.q.q",
".r.r.[.b.a,W,8,(.a.$.r,t,;.r.r-),#.r.r.r.[.b,%-7-1*0.@.b.b-H-S.a.b,%-l.r.$,raD-1,R.ra#,@,F-l.r.6.q-p*was.a.b*W,T,U-l.r,%.b.[.r.r",
".s.s.],r.2,W,8,(,@-t.t.t.t.s-K.r*-.t.s.s.]-)*U-K.t-K*0,#.b-H-S.2.6-7-K.t,%aDaW-r*4.s-1,F-0-K.t*Wbvby*wbH.2-)bQ.s.t.t-K-[-).].s.s",
".t.t.t,s,N,X,8,(-l.t.t.t.t.t.t,s,s.t.t.t.t,s.t.t.t.t.t-L-:-H-S,@,t.t.t.t,s-1-r.f,c.t.t,s-1.t.t.tbwbz*wbHbK,U.t.t.t.t.t.t,s.t.t.t",
".t.t.t.t,O,Y,9,)-m.t.t.t.t.t.t.t-r-i,:.Y.t.t-F-F.t.t.t*7*@*=a,.7an.t.t.t.u,c,:.e,c.t.t.t.t.t.t.tbxbAbDbIbL.t.t.t.t.t.t.t.t-e,:,:",
".t.t,.,c,P,Q.0,d-i.;.t.t.t.t.t,,.v.e.Z,c.t.t,:-u,c,.-r-F*#-z.).f.Y-r,.,c,c-i.e-i,,,.,c,..t.t.t,,-ebB,9,$,P,c,..t.t.t.t-r.Y.f-a-i",
".t.t,,.f.f,Z.0,[.e-u,..t.t,.,.-i.e.e-q.t.t,.-i.e.f,,.v.e.e-z-..e.e.Y.;.e.e.e-a-r,..Y.f,,.t.t,..Z.e,],9bb.f.e-q.t.t,.,..Y.e.e-F.t",
".u.Y.f.e.f,Z.0,].e.e-a,,,c-a-a.f.e.e.f-F,.-u.f.e.e-a.f.e.e,u-..f.e.f.f.e.e.e.e-a-a.f.e.f.Y-r-a.e.e*u,9bb.f.e.f-F,.-u-a.f.e.e.f-a",
".v.Z.e.f,Q,0.0.F-n.f.e-e-i.e.e.e.e.e.e.Z-e.f.e.e.e.e.f,].g.Va-ae,J.e.e.e.e.e.e.e.e.e.e.e.Z-e.e.f..-..0bJbb.e.e.Z-e.f.e.e.e.e.e.e",
"........,u.h.,.h-.,d..................................,Q.,.,.,.0*v............................,d.g.h.,.hbf......................",
".,.0.3.3.3.0.0.0.3.3.3.3.3.3.3.3.3.3.3.3.3.0.0.0.0.3.3.3.0.0.0.0.3.3.3.3.3.3.3.3.3.3.0.0.,.0.3.3.3.0.0.0.3.3.3.3.3.3.3.3.3.3.3.3",
".-.x.4,*,*,*,*,*,*,*,*,*,*,*,*,*,*,*,*,*-8.3.,.,.3-8,*,*,*,*,*,*,*,*,*,*,*,*,*,*.4a1,V.,.n.=*6,*,*,*,*,*,*,*,*,*,*,*,*,*,*,*,*,*",
".*.1.5.a.a.a.a.a.a.a.a-E,F.c.a.a.a.a.a.a*r*H.=.=*H*r.a.a.a.a.a.2ao.6.c.a.caT*-.2.5a7a;a:b-ba.b.a.a.a.a.a.a.a.caT*-.2.a.a.a.a.a.a",
".a.2.b.6.6.$.b,#.6.6.6,;-N.$.b.b-:.6.6*q.b.a*J*J.a.b*q.6.6-:,@,r,U.r*q.b.$aD.#-),@.b-9*x*o.%.b.$.6,#.b.$.6.6,#aD.#-),@.b.b,#.6.6",
".b.b.6,t,s,R,@,;.#.#.#.t-1-3.$.j,F.#,s-l.q.b*K*K.b.q-l,s.#.@*-,U.t-1-N.b*U-1.t,U,%.q,+*xb*.a.b-N,s-3*q*0,s.#.#,s.t,U,%.j,@,;.#.#",
".c.B.7,b.t,t,1,s,h.t,h-F-O-1-7-=-[,h.t*i*s,l*J*J,l*s*i.t,h,T*+.t.t,b.]aF.#,h.t,b,Oa3*D*xa$.$bgbk,b,s-7,a.t,h.tbS-e-X-L,R,1,s,h.t",
".d.C.8,c,..t.s.t,b,.-v-a-i.t.s.s.t,b,,*j*t*A*L*L*A*t*j,,,b-6*%.;.t.t.taG.t,b,..;a0a4aa,pa(aA,ybl-r.t.s.t.t,b,,a6-a,..t.s.s.tag,c",
".e.D.e.D,x,b,h,.,h,,.D.e-P,b-X,h.t-C-u.D.e.D*M*M.D.e.D-u-C.Z.Da*ag-C,.-C.t,h,,aY,y,ya9.V,o.f.D.e-P,b,b,h,.-C-u.D-a-C-X,b,h.t,2.e",
".f.e.e.e.f.v.t,:-a-a.e.e.f-a-a,c,,-a.e.e.e.f*N*N.f.e.e.e-a.f.e.e-a-a-a-u-r,c-a.e.e.e,J.V.m.f.e.e.f.Z,.-F-a-a.e.e.e-a-a.v.t,:.f.e",
".g.E.f.D,y,S,2.f.L.e.L.e.D,y,y-+-e.L.e.L*u,o*O*O,o*u.L.e.L.e.D,y,y.D.e.L-eaO.e.Da*a5a@,9a)bb.L.e.Da*bCbF.e.L.e.L.e.D,y,S,2.f.L.e",
".h.F.9,d,d,d,3,d,d,d,d,d,d,d,d,d,3,d,d,d*v.0.,.,.0*v,d,d,d,d,d,d,d,d,d,d,3,d,d,d.9.m.h.,.hbc..,d,d,d,3,d,d,d,d,d,d,d,d,d,3,d,d,d",
".,.w.0,e,z,z,e.0.w.0.w.0,e,z,z,e.0.w.0.w.0*B,7,7*B.0.w.0.w.0,e,z,z,e.0.w.0.w.0,e,z,z*B.,a=.,.w.0,e,z,z,e.0.w.0.w.0,e,z,z,e.0.w.0",
".i.G.i.+.+.G.G.G.+-o.,.,.h,8-8.i.G.G.G.G.i.+.+.G.i.G.G.G.G.+*$,V.,,Vax.G.G.G.G.G.G.+.+.i.G.i.G.+.+.G.G.G.G.G*x.n.,b0b5.+.G.G.G.G",
".a.H.2,f,A.c,w.a-b-p-w-G-Q-4-9,w.a.H.a.H.2,f,A.c,w.a.H.a.H.5*(.xahaqay.H.a.H.a,w.c,A,f.2.H.a.H,Nbp.c.a,w.a.Aa1bT,8*lb6.5,w.a.H.a",
".b.I.@,g,B.$,m.$,m.$,l-H-R.a.$,m.$,l.$,m.@,g,B,@,l.$,m.$,m-:.z.p*war.5,l.$,m.$,l,@,B,g.@.I.b,m,;,1.$.$,m.$,mbNa%*xb1,@.$,m.b.I.$",
".j.J.#.t.#.].].]-c,T,l-H-S,@-3.#-7,l,T-c.#.t,U.k-:*.*1.],a.@.c-p*was.c,l,T-c*.-:.k,s.t.#.J.6,a-1,s.].].].],abOa%*x,+.k.#,t,#b#.#",
".k.K.t,h,b,b,h.v-d.#-x-I-T-5-@,h.]-x.#,h,.-P*P*V*Z,U,h-r-P.7*)-ZaiatazaH*XaP,U*Z*V,b,h.t.Kbd,h.t,h,b,bbG-F,hbPbUbZb2*V,b,h,Rb;.t",
".l.l.;.;.;.;.;.f-e-q.l-J-U-6-q.;-q.l-q-q,c.e.v-q.l-q-q.Y.e*;*[aaajauaA*#,J-i-q.l-q,,.t.t-r.l-q.;.;.;-q,:-a.;,,bVa-b3-q.;-q.l.l.;",
".e.L.e.D,y,y.D.e.L.e-y-z-V,y,y.D.e.L.e.L.e.D,y,y.D.e.L.e.L.e.Dabakav.e.L.e.L.e.D,ya6,h.t*9.e.L.e.D,y,y.D.e.L.ebW.V*G,y,y.D.e.L.e"
};
