/* XPM */
static char *graphic[] = {
"64 64 47 1",
". c #542E1E",
", c #592D16",
"- c #582C14",
"* c #582B12",
"a c #572B10",
"b c #572A10",
"c c #572A0F",
"d c #56290D",
"e c #582B11",
"f c #582C12",
"g c #56290E",
"h c #572B12",
"i c #582D16",
"j c #4E3124",
"k c #5E2A07",
"l c #522F20",
"m c #612B08",
"n c #672D08",
"o c #7D340B",
"p c #522F1F",
"q c #512E1C",
"r c #502B18",
"s c #4F2A15",
"t c #4F2B15",
"u c #502A14",
"v c #512A13",
"w c #512A12",
"x c #522A13",
"y c #522C16",
"z c #522C17",
"A c #502B17",
"B c #4F2B16",
"C c #582C15",
"D c #502D1A",
"E c #512E1E",
"F c #533122",
"G c #563325",
"H c #512D1B",
"I c #502C19",
"J c #4E2914",
"K c #4D2710",
"L c #512D19",
"M c #4F2A16",
"N c #4D2814",
"O c #4D2816",
"P c #502D1D",
"Q c #4B3227",
".,,,,,,,,,,,,,,,,,,i-ebbbbbbccbbbbcbbbbbba*C,,,,,,,,,,,,,,,,,,,j",
",kkkkkkkkkkkkkkkkkkkkkkkkkkkkkkkkkkkkkkkkkkkkkkkkkkkkkkkkkkkkkkl",
",kmnnnnnnnnnnnnnnnnnnnnnnnnnnnnnnnnnnnnnnnnnnnnnnnnnnnnnnnnnnkkl",
",knooooooooooooooooooooooooooooooooooooooooooooooooooooooooookkl",
",knooooooooooooooooooooooooooooooooooooooooooooooooooooooooookkl",
",knooooooooooooooooooooooooooooooooooooooooooooooooooooooooookkl",
",knooooooooooooooooooooooooooooooooooooooooooooooooooooooooookkl",
",knooooooooooooooooooooooooooooooooooooooooooooooooooooooooookkl",
",knooooooooooooooooooooooooooooooooooooooooooooooooooooooooookkl",
",knooooooooooooooooooooooooooooooooooooooooooooooooooooooooookkl",
",knooooooooooooooooooooooooooooooooooooooooooooooooooooooooookkl",
",knooooooooooooooooooooooooooooooooooooooooooooooooooooooooookkl",
",knooooooooooooooooooooooooooooooooooooooooooooooooooooooooookkl",
",knooooooooooooooooooooooooooooooooooooooooooooooooooooooooookkl",
",knooooooooooooooooooooooooooooooooooooooooooooooooooooooooookkl",
",knooooooooooooooooooooooooooooooooooooooooooooooooooooooooookkl",
",knooooooooooooooooooooooooooooooooooooooooooooooooooooooooookkl",
",knooooooooooooooooooooooooooooooooooooooooooooooooooooooooookkl",
",knooooooooooooooooooooooooooooooooooooooooooooooooooooooooookkl",
",knooooooooooooooooooooooooooooooooooooooooooooooooooooooooookkl",
",knooooooooooooooooooooooooooooooooooooooooooooooooooooooooookkl",
"-knooooooooooooooooooooooooooooooooooooooooooooooooooooooooookkl",
"*knooooooooooooooooooooooooooooooooooooooooooooooooooooooooookkE",
"aknooooooooooooooooooooooooooooooooooooooooooooooooooooooooookkH",
"bknooooooooooooooooooooooooooooooooooooooooooooooooooooooooookkI",
"bknooooooooooooooooooooooooooooooooooooooooooooooooooooooooookkB",
"bknooooooooooooooooooooooooooooooooooooooooooooooooooooooooookkt",
"bknooooooooooooooooooooooooooooooooooooooooooooooooooooooooookkt",
"bknooooooooooooooooooooooooooooooooooooooooooooooooooooooooookkt",
"cknooooooooooooooooooooooooooooooooooooooooooooooooooooooooookkJ",
"dknooooooooooooooooooooooooooooooooooooooooooooooooooooooooookkK",
"dknooooooooooooooooooooooooooooooooooooooooooooooooooooooooookkK",
"eknooooooooooooooooooooooooooooooooooooooooooooooooooooooooookkJ",
"fknooooooooooooooooooooooooooooooooooooooooooooooooooooooooookkA",
"eknooooooooooooooooooooooooooooooooooooooooooooooooooooooooookkL",
"bknooooooooooooooooooooooooooooooooooooooooooooooooooooooooookkL",
"bknooooooooooooooooooooooooooooooooooooooooooooooooooooooooookkL",
"bknooooooooooooooooooooooooooooooooooooooooooooooooooooooooookkL",
"bknooooooooooooooooooooooooooooooooooooooooooooooooooooooooookkr",
"cknooooooooooooooooooooooooooooooooooooooooooooooooooooooooookkM",
"dknooooooooooooooooooooooooooooooooooooooooooooooooooooooooookkN",
"gknooooooooooooooooooooooooooooooooooooooooooooooooooooooooookkO",
"hknooooooooooooooooooooooooooooooooooooooooooooooooooooooooookkP",
"iknooooooooooooooooooooooooooooooooooooooooooooooooooooooooookkl",
",knooooooooooooooooooooooooooooooooooooooooooooooooooooooooookkl",
",knooooooooooooooooooooooooooooooooooooooooooooooooooooooooookkl",
",knooooooooooooooooooooooooooooooooooooooooooooooooooooooooookkl",
",knooooooooooooooooooooooooooooooooooooooooooooooooooooooooookkl",
",knooooooooooooooooooooooooooooooooooooooooooooooooooooooooookkl",
",knooooooooooooooooooooooooooooooooooooooooooooooooooooooooookkl",
",knooooooooooooooooooooooooooooooooooooooooooooooooooooooooookkl",
",knooooooooooooooooooooooooooooooooooooooooooooooooooooooooookkl",
",knooooooooooooooooooooooooooooooooooooooooooooooooooooooooookkl",
",knooooooooooooooooooooooooooooooooooooooooooooooooooooooooookkl",
",knooooooooooooooooooooooooooooooooooooooooooooooooooooooooookkl",
",knooooooooooooooooooooooooooooooooooooooooooooooooooooooooookkl",
",knooooooooooooooooooooooooooooooooooooooooooooooooooooooooookkl",
",knooooooooooooooooooooooooooooooooooooooooooooooooooooooooookkl",
",knooooooooooooooooooooooooooooooooooooooooooooooooooooooooookkl",
",knooooooooooooooooooooooooooooooooooooooooooooooooooooooooookkl",
",knooooooooooooooooooooooooooooooooooooooooooooooooooooooooookkl",
",kkkkkkkkkkkkkkkkkkkkkkkkkkkkkkkkkkkkkkkkkkkkkkkkkkkkkkkkkkkkkkl",
",kkkkkkkkkkkkkkkkkkkkkkkkkkkkkkkkkkkkkkkkkkkkkkkkkkkkkkkkkkkkkkl",
"jlllllllllllllllllpqrstttttsuvwwwxyzAttsttBDEllllFGGFllllllllllQ"
};
