/* XPM */
static char *graphic[] = {
"64 64 478 2",
".. c #85578E",
"., c #83568D",
".- c #5D446B",
".* c #554063",
".a c #533E63",
".b c #3F305A",
".c c #3E2F5A",
".d c #3E2F5B",
".e c #3D2F58",
".f c #2F2D32",
".g c #604665",
".h c #875890",
".i c #84578D",
".j c #60456D",
".k c #2F2D33",
".l c #5D4461",
".m c #62466F",
".n c #543F63",
".o c #40305B",
".p c #3A2F4E",
".q c #322F32",
".r c #76507D",
".s c #86588F",
".t c #644771",
".u c #523D62",
".v c #3F2F5A",
".w c #382E48",
".x c #373238",
".y c #805488",
".z c #84568D",
".A c #724E7D",
".B c #5B426C",
".C c #48365E",
".D c #3F2F5B",
".E c #3C2F53",
".F c #362E44",
".G c #2E2D30",
".H c #604666",
".I c #83568C",
".J c #544062",
".K c #4A385F",
".L c #42325C",
".M c #5C4461",
".N c #62466E",
".O c #503C61",
".P c #49375F",
".Q c #82558B",
".R c #704D7B",
".S c #5E446B",
".T c #333033",
".U c #59425D",
".V c #76507E",
".W c #5C426C",
".X c #83578C",
".Y c #7B5283",
".Z c #795181",
".0 c #7B5383",
".1 c #5B416B",
".2 c #3A2E53",
".3 c #3C2F54",
".4 c #3C2F55",
".5 c #372F46",
".6 c #2F2E2E",
".7 c #2D2D2D",
".8 c #614666",
".9 c #654772",
".@ c #594167",
".# c #564064",
".; c #543E63",
".: c #45345D",
".= c #684973",
".+ c #4F3B63",
".% c #3D2E5A",
".$ c #7D5387",
".( c #574065",
".) c #4B385F",
".[ c #382F49",
".] c #2C2D2C",
",. c #312F32",
",, c #302E31",
",- c #2F2E30",
",* c #2F2E2F",
",a c #84578E",
",b c #6E4C79",
",c c #523E62",
",d c #41315B",
",e c #5D4462",
",f c #885891",
",g c #674678",
",h c #3C2E59",
",i c #865890",
",j c #7E5387",
",k c #584166",
",l c #46355D",
",m c #6F4C7A",
",n c #6A4A71",
",o c #694A6F",
",p c #6B4B71",
",q c #523D5E",
",r c #382E4B",
",s c #392F4C",
",t c #392F4D",
",u c #352E41",
",v c #875891",
",w c #6D4B78",
",x c #533E62",
",y c #312E34",
",z c #3D353E",
",A c #57415C",
",B c #85578F",
",C c #7E538A",
",D c #6B487B",
",E c #43315E",
",F c #382E49",
",G c #322E38",
",H c #513C62",
",I c #523F56",
",J c #885992",
",K c #7C5286",
",L c #5F4371",
",M c #44335D",
",N c #3F2F5C",
",O c #3B2F50",
",P c #332E3C",
",Q c #2E2D2F",
",R c #754F80",
",S c #5C4369",
",T c #47355E",
",U c #312E35",
",V c #39333A",
",W c #68496D",
",X c #6A4A70",
",Y c #66486D",
",Z c #3D314F",
",0 c #322E39",
",1 c #2E2E2E",
",2 c #805589",
",3 c #674873",
",4 c #5B4368",
",5 c #312F31",
",6 c #483A4A",
",7 c #704D77",
",8 c #80558B",
",9 c #564063",
",@ c #40315B",
",# c #3D2F57",
",; c #594166",
",: c #3D2F5A",
",= c #302E30",
",+ c #85588F",
",% c #82568C",
",$ c #634670",
",( c #513D62",
",) c #7E5487",
",[ c #86578F",
",] c #81558B",
"-. c #7A5284",
"-, c #5C436A",
"-- c #574165",
"-* c #7E5388",
"-a c #2D2D2C",
"-b c #3C343D",
"-c c #77507F",
"-d c #7A5282",
"-e c #754F7E",
"-f c #413258",
"-g c #2E2E2D",
"-h c #7F5489",
"-i c #7E5486",
"-j c #785182",
"-k c #554064",
"-l c #4A375E",
"-m c #5D436D",
"-n c #4A375F",
"-o c #302E34",
"-p c #473949",
"-q c #66486C",
"-r c #774F84",
"-s c #5C4070",
"-t c #41315D",
"-u c #352E3F",
"-v c #795183",
"-w c #684974",
"-x c #4C3960",
"-y c #4E3A60",
"-z c #5E436E",
"-A c #7B5285",
"-B c #5F446C",
"-C c #584165",
"-D c #624473",
"-E c #43335C",
"-F c #553F64",
"-G c #5E4462",
"-H c #895992",
"-I c #624474",
"-J c #3B2E58",
"-K c #3A2F4F",
"-L c #77507E",
"-M c #543F62",
"-N c #46345D",
"-O c #40305C",
"-P c #372E48",
"-Q c #81558A",
"-R c #83558C",
"-S c #61456E",
"-T c #4E3A61",
"-U c #5C4460",
"-V c #634770",
"-W c #6E4B7B",
"-X c #44345D",
"-Y c #44335E",
"-Z c #82568B",
"-0 c #7C5386",
"-1 c #594266",
"-2 c #43325C",
"-3 c #574164",
"-4 c #734E7E",
"-5 c #44335C",
"-6 c #45335E",
"-7 c #6A4A76",
"-8 c #553F63",
"-9 c #4E3B61",
"-@ c #80558A",
"-# c #5A4267",
"-; c #4D3A60",
"-: c #704D7C",
"-= c #513B65",
"-+ c #4D3960",
"-% c #42325D",
"-$ c #7A5285",
"-( c #674973",
"-) c #3F305B",
"-[ c #644770",
"-] c #503B61",
"*. c #634475",
"*, c #3E2F59",
"*- c #654872",
"** c #7E5488",
"*a c #5B4369",
"*b c #574064",
"*c c #302E33",
"*d c #423743",
"*e c #5E4563",
"*f c #7A5186",
"*g c #644477",
"*h c #3B2F52",
"*i c #5A4268",
"*j c #3A2E4E",
"*k c #533C67",
"*l c #42325B",
"*m c #7B5187",
"*n c #533D64",
"*o c #3C343E",
"*p c #6E4C75",
"*q c #6F4C76",
"*r c #704D76",
"*s c #6A4A72",
"*t c #3D3151",
"*u c #3A2F50",
"*v c #372F45",
"*w c #48365F",
"*x c #392E4E",
"*y c #634769",
"*z c #7B5282",
"*A c #604273",
"*B c #483562",
"*C c #3B2F53",
"*D c #80548A",
"*E c #4A3663",
"*F c #49375E",
"*G c #5C4462",
"*H c #63466F",
"*I c #47355F",
"*J c #57425D",
"*K c #694878",
"*L c #332E3A",
"*M c #543E64",
"*N c #3D353F",
"*O c #734F7B",
"*P c #744F7C",
"*Q c #76507C",
"*R c #6F4C77",
"*S c #3F3154",
"*T c #6D4B79",
"*U c #363137",
"*V c #3E353F",
"*W c #39333C",
"*X c #322E36",
"*Y c #4F3B61",
"*Z c #46355E",
"*0 c #453947",
"*1 c #634768",
"*2 c #85568E",
"*3 c #5F4273",
"*4 c #41305C",
"*5 c #362E42",
"*6 c #765081",
"*7 c #654771",
"*8 c #423744",
"*9 c #57415B",
"*@ c #56405A",
"*# c #4B3A52",
"*; c #774F85",
"*: c #624667",
"*= c #3E3059",
"*+ c #5F456C",
"*% c #604565",
"*$ c #81558C",
"*( c #664678",
"*) c #342E3F",
"*[ c #7E5489",
"*] c #594267",
"a. c #724E79",
"a, c #563C6B",
"a- c #372E47",
"a* c #5F4664",
"aa c #765080",
"ab c #805489",
"ac c #664872",
"ad c #553E66",
"ae c #6C4B78",
"af c #7F5488",
"ag c #302D34",
"ah c #543F57",
"ai c #694975",
"aj c #382F48",
"ak c #764F80",
"al c #785183",
"am c #413743",
"an c #714D7C",
"ao c #352E40",
"ap c #6F4C7B",
"aq c #5D436A",
"ar c #423745",
"as c #433845",
"at c #3F3541",
"au c #37323B",
"av c #332F39",
"aw c #503C62",
"ax c #47365E",
"ay c #353136",
"az c #4F3D52",
"aA c #503E53",
"aB c #483A4C",
"aC c #3C3442",
"aD c #352F40",
"aE c #775183",
"aF c #4B3860",
"aG c #463949",
"aH c #58425C",
"aI c #815589",
"aJ c #392F4B",
"aK c #61456F",
"aL c #624570",
"aM c #6B4A77",
"aN c #553F65",
"aO c #744F7B",
"aP c #543C6A",
"aQ c #5B4268",
"aR c #3B343C",
"aS c #7F538A",
"aT c #5C426B",
"aU c #61466E",
"aV c #554062",
"aW c #443847",
"aX c #503C58",
"aY c #5D426C",
"aZ c #543F64",
"a0 c #59425E",
"a1 c #6A487A",
"a2 c #45335F",
"a3 c #343034",
"a4 c #363138",
"a5 c #4B3663",
"a6 c #302F30",
"a7 c #83578D",
"a8 c #795086",
"a9 c #42315D",
"a@ c #3A2F4D",
"a# c #82568A",
"a; c #694778",
"a: c #332E39",
"a= c #523D64",
"a+ c #493A4B",
"a% c #493A4C",
"a$ c #46394A",
"a( c #352F3D",
"a) c #342E3C",
"a[ c #5E4463",
"a] c #78517F",
"b. c #644476",
"b, c #4B3764",
"b- c #77517F",
"b* c #7D5386",
"ba c #83578E",
"bb c #6D4B7A",
"bc c #7F5487",
"bd c #6E4C7A",
"be c #664873",
"bf c #584167",
"bg c #2F2D31",
"bh c #363136",
"bi c #614373",
"bj c #3D2E59",
"bk c #2E2D2D",
"bl c #4C395F",
"bm c #65486A",
"bn c #624374",
"bo c #433846",
"bp c #3B333F",
"bq c #604372",
"br c #3B343D",
"bs c #503E54",
"bt c #4F3D53",
"bu c #423649",
"bv c #654871",
"bw c #4A3B4D",
"bx c #754E82",
"by c #573D6C",
"bz c #433745",
"bA c #302E32",
"bB c #2E2D2E",
"bC c #42315B",
"bD c #7D5385",
"bE c #785082",
"bF c #342E3D",
"bG c #302E2F",
"bH c #68496E",
"bI c #312E33",
"bJ c #363237",
"bK c #383239",
"bL c #614667",
"bM c #604566",
"bN c #3C314C",
"bO c #714E7C",
"bP c #594168",
"bQ c #3A333B",
"bR c #533F56",
"bS c #80548B",
"bT c #6F4B7F",
"bU c #43325F",
"bV c #86578E",
"bW c #644575",
"bX c #5B4461",
"bY c #86588E",
"bZ c #674778",
"b0 c #3D2F59",
"b1 c #6E4B7A",
"b2 c #654576",
"b3 c #6A4A75",
"b4 c #513B64",
"b5 c #43325D",
"b6 c #49365E",
"b7 c #82558C",
"b8 c #6E4B79",
"b9 c #4F3C5F",
"b@ c #7D5388",
"b# c #49365F",
"b; c #5F4370",
"b: c #714E78",
"b= c #704B7F",
"b+ c #513968",
"b% c #3C2F56",
"b$ c #5D446A",
"b( c #41315C",
"b) c #785083",
"b[ c #47365F",
"b] c #4B3763",
"c. c #6A4977",
"c, c #5B4360",
"c- c #57415D",
"c* c #393047",
"ca c #372E46",
"cb c #342E3E",
"cc c #4C3B53",
"cd c #362E43",
"ce c #5C4360",
"cf c #443846",
"...h.Y.T,n,J.i-.-j-A..-0-7-C,R-j-A..-A-j-..i,J,n.T.Y.h,%alaq.m-v-j-@-Zalal-j-..i.$ae.#-4-h,[.hbobs,J...$-jal.Iab-4.#,w-v-v.z**-j",
".,.z.Z.T,o.h,8-,.*-B-Q.m-8-k.#.*.N*D-B.*-,,8.h,o.T.Z*2-A---k.#.#.*.A-v.#.#.#-,,8*7.*.#.*bb...Iasbt.s.i-w.*---0b1.*-F.#.#,k-*c..*",
".-.A.0.T,p,K.S--.#-C.S-1-9-5.n.#*n*E*M.#--.S,K,p.T.0.A,S.#,l-n-3.#*aaq*b*b.#aZa5a=-3.#.#-#be..asaA.i.m*].#.#aq,4.;-E-].#-Fb]b4-3",
".*.B.1,.,q,L,9.#-k.#.*-y.:-).;*b.a*F.P-].#,9,L,q,..1.B.*-k-+.P.)-F.#,x.K-n.O.n-n-n-T.#.#-kbfbibpbubn.(.#.#-k.#aw.C.c-T*b.#.).P.K",
".a.C.2,,,r,M.a.#.n.u.u-2.v-5.n.;.a.#.:.).#.a,M,r,,.2.C.a.#-3-T-2.n.n-+.c.o.)*b*b.:-5.a.#.n-Tbj,0*).vaw-8-F.u.ab6.c,d-]-F.u.#aF,d",
".b.D.3,,,s.D,@.a-l.c.b.c,T.#.#.C,M.#-F.#.a,@.D,s,,.3.c-E-k.#,9-F.#.C.c.v,H.#.#.#,l.c,@.a-n.c.c,0-u.d.v-;,H.b.b.c,d.;.#*Y.o.a.#-F",
".c.d.4,,,t,N.c,M,d.c.c.c,d.:.:,d.o.:.;*Y-5.c,N,t,,.4.d-).:.aaw.:.:,d.c.c-E-;-8,l,@.c.c,M,d.c.da:ao,N.c.L-E.c.c.c.b.:.:-2.c-5*Y-3",
".d.E.5,-,u,O.c.c.c.c.c.c.c.c.c.c.c.c.)*Z.%.c,O,u,-.5.E.c.c-nax.%.c.c.c.c.%.:-x.c.c.c.c.c.c,#aJ,Ua:,s*,.c.c.c.c.c.c.c.c.c.c.%,l-T",
".e.F.6,*.6,P,#,#,#,#,#,#,#,#,#,#,#,#,#,#,#,#,P.6,*.6.F.e,#,#,#,#,#,#,#,#,#,#,#,#,#,#,#,#,#-K,-,*,*bA.E,#,#,#,#,#,#,#,#,#,#,#,#,#",
".f.G.7.7.7,Q.f.f.f.f.f.f.f.f.f*c,y,y,y*c.f.f,Q.7.7.7.G.f.f.f.f.f.f.f.f.f.f.f.f,y,y,y,y.f.fbgbk.7.7bB.f.f.f.f.f.f.f.f.f*c,y,y,y,y",
".g.H.8.8.8.8.8.8.g.g.g.8.8.g.8*d-a,*.]*0*:.g.8.8.8.8.H.g.g.8.8.g.g.g.g.g.g.8a0a6,1,1a6a0.8.H.8.8.8.8.8.8.g.g.g.8.8.g*:aA.7,*,1.7",
".h.h.h.h,v.z.$,[.h.h.h-h-@,v,J*e*o,=*N*1-H.h.h.h.h.h.h.h.h-h-@,v.h.h.h.h.h,f-i-payay-p-i,f.h.h.h.h.s.$.I,v.h,vb7b@.h-Hb:*d,.bQcf",
".i.I.i,a..,R,;-*.z..-R-S-w....,B*p.q*O*2...X.i.i,a.i.I.i-R-S-w...i,a...I.i.z...ia+a+,a...z.i.I..,a-@*i.A...z..b8,S,]....bc,Vc,,[",
".j.j.9.i,w,S.#.S,R,2-S,k-#-[.I.h*q.q*P.h,].m-Bae.i.9.j.j.j,;*i.j.j-j.$.j-B.A.h,[a%a%,[.h.A-B.j.$-j-B.(*a-7bV-waQ--*+-..h,2,V.M.h",
".*.J.@,b.S.*.#.*-m-D.*.#.#.(*.*f*r.q*Q-r-I,9-8.S,b.@.J.*.J-y*Y.n.)aK-7.J.*aTa1a7a%a%a7a1aT.*.J-7bv.*.#.*bPbWbf.J.#.*b;b=,2,V-U,f",
".a.n.#,c,x.n.#.#-n-E-k.#-F,H*,*g*s,.*R*3*=.u-F.#.*.#.#-k.a.L,T.n.L-;.#.#.n.Ca2a8a$a$a8a2.C.n.#,x,c.a.#.#.O,@.u.#.#.a*lb+b)bKc-,C",
".b.K.;,d.b,T.#.#-k-F.#-3-;.b.c-t*t,=*S*4.c-)*Y*b.#.#*b.u.o.c.C.#-F-k.#.#-5.c.va9a(a(a9.v.c-5.#.:.bbC.n.#.#-8.#.#.a,d.c-),d,yc*,E",
".c.L.:.c.c,d,l,l,l.P.#.)-2.c.c.d*u,-*h.d.c.c-E-x.#.C,l.:.c.c,d,l,law.a,l.o.c.c.da)a).d.c.c.o,l.o.c.v.:,l,l,T.;*Y.:.c.c.cb0,yca,N",
".c.c.c.c.c.c,:,:.%,d-T.L,:.c.c*h*v,-.5.E.c.c.%-E-T.o.%.c.c.c.c,:.%.C.).c.c.c.ea@,G,Ga@.e.c.c,:.c.c.c.c,:,:.c-x,T.%.c.cb%aJbAcba@",
".e.e.e.e.e.e.e.e.e.e.e.e.e.e.e-u.6,*.6*5*,.e.e.e.e.e.e.e.e.e.e.e.e.e.e.e.e.e*h,,,*,*,,*h.e.e.e.e.e.e.e.e.e.e.e.e.e.e*,aJ,*,*,*,*",
".k.k.k.k,y,U,U,U-o.k.k.k.k.k.k,Q.7.7.7.G.k.k.k.k.k.k.kag,U,U,U,U.k.k.k.k.k.k.f.7.7.7.7.f.k.k.k.k-o,U,U,U,U.k.k.k.k.k.kbg.7.7.7.7",
".l.M.l,e,z.7,*-a-p-G-U.l.l.l.l,e,e*G,e.M.l,e.l.l.l.l*Gah,*.6,1.qaH.l.l.M.l.M.l,e,e,e,e.l.l.l.M-Gbw.7.6.7bQbX.l.M.l.l.l,e,e,e*G,e",
".h.h.h,f,A,V,=-b-q-H.h.h.h.h.h,]-@.h.h.h,[*[,a.h.h.h,f.Zam.TayaGaI,v.h.h.h.h,[*[,a.h.h.h.h.h.h-H,p*Na6bKbR.h.h.h.h.h.h,a*[,[.h.h",
"...z..,a,B,W.T-c.z...z...i....-w.N.I...z***]aa,[,a...z.i-Qaraz.i..,a...z...z***]aa,[,a...z...z...i.YaybL,[.z...z..,a,[aa*]**.z..",
".m.N.=..,f,o.T.Z.h,2-V-S-:.,*-*i,;*H-@*6*+*b.S.m.m.m.Nai..asaA,a.9-SaM..aiaU.j--.-,b..,3.N.m*H.$.hbDay*1,fbYb3aU,3..,bb$*b*+,R.h",
".*.O.+,g,C,X.T-d-r-I-x,c-S.R,k,9.#,9*T*7-8.#.#.*-8-;.O,4anataBan,k-8aq.RaQaV.n-+.u-Ban*].*,xblbqbx-ibh*ybSbZb4b9*]an-B-8.#-8*7-4",
".n.P.%,h,D,Y.T-e-s-J.c-T.;,x.;-F.#.#.a.a.;.;.;.;.a,@.P.n,xauaC.;.;.;.a,x.;.;,H.v-x.n,x.;.n*Y.c-JbybEaybMbTb0bj.C.n,x.a.n.#.#.n,x",
".o.b.c.c,E,Z,,-f-t.c.c.o.o.o.o-y-3.#,M.o.o.o.o.o.o.c.b.o.oavaD-O.o.o.o.o.o.o.o.c-).o.o.o.o.o.c.c*4*lbIbNbU.c.c.b.o.o.oax.#-3.K-)",
".d.d.d.d,F,0,-,P.p,N.d.d.d.d.d,M*w*I-O.d.d.d.d.d.d.d.d.4ao*c,U*5.e.d.d.d.d.d.d.d.d.d.d.d.d.d.d,N*ubF,-,Ga-.d.d.d.d.d.db(b[*w-%.d",
".p.p.p.p,G,1,*-g-u-K.p.p.p.p.p*j*x*x.p.p.p.p.p.p.p.p-Kaj,*,*.6,,aJ.p.p.p.p.p.p.p.p.p.p.p.p.p.p-K,u,1,*.6*X.p.p.p.p.p.p.p*x*x.p.p",
".q.q.q.q.q.q.q.q.q.q.q.q.q.q.q.q,5,*,*,*,-.q.q.q.q.q.q.q.q.q.q.q.q.q.q.q,=,*,*,*,5.q.q.q.q.q.q.q.q.q.q.q.q.q.q.q.q.q.q.q.q,-,*,*",
".r.r.r.r.r.r.r.r.V-L-L.r.r.r.r-c*y.7,*.7.xa..r.r.r.r.r.r-L-L.V.r.r.r.raOaR.7,*-aa[b-.r.r.r.r.r.r.r.r.r.r.r-L-L.V.r.r.r.ra..x.7,*",
".s...h,i.h,i,+.h-v,m-W-Q,i.s.h.s*z*J*U*8*%.,.h,i,+.h,[,%ap,maE.h.s,+,i.z*1aWa3*9a].h,i.h...s,[.h,i.h.s,i-Qb1,m-v.h,+,i.h.,*%*8,1",
"...Q.$,j.$,2..-h-w-M.*-4,].i**-Z,[..*V*9-H..abab..af**ak.#-M*7af.i-@-h..-H,e,V-Z,[.I.$.$.Q.z,j,j.$**.i,]-4.*-M-w-h..abab..-HaH.7",
".s.R.(,k.(,3,%.S.#.#.#.#-7.Q*a.A.s-Z*V*@.h,aacac,%.S-C-C.#.#*b,S.Qai.m.i.h.M,V,2.s*6-C.(an.$.@,k,k,S.Q-7.#.#.#*b.S,%acac,a.h*9.7",
".t.S.n,l,H,4,$,k-x,M-X-5-=,$-C*k*A.i*V*9*$a,ad,4,$,k.#.a.:,MaF--*H,SaNaPaS-G,Va#b.*k*b.#.S.N*b.P-x-C*H,S,(.:-X,Mb#.m,4ada,*$aH.7",
".*.u.).c.C.O.*.#-y-N,l-N-x-8-9*l*B*K*W*#*(.D.C.O.*.#.u.K.c-5-+.#.*,H*F.c*gaXa4a;b,,d-T-F.#.;-;,d-E-9.n.#.u,l,l,l.C.n.O.C.D*(ccbk",
".u.C.c.c.c,M,(,(,(.u.#.#.n-].o.c.c*,*X*5.d.c.c,M,(.u,T.c.c-x.u,(.u-N.c.c.d.5,y.e.c.c.b*Y.u-y.c.c.c.o-],(,(,(-F.#-k.u,M.c.c.dcd.6",
".v.c.c.c.c.c.v.v.c-E-F.#-+.c.c.c.c*,*X*5.d.c.c.c.v.v.c.c.c.c.v.v.v.c.c.c.d*v,y,#.c.c.c.v.v.c.c.c.c.c.v.v.v.b,(.#.a.o.c.c.c.dcd.6",
".d.d.d.d.d.d.d.d.d-O-Y-6-%.d.d,N*C*L,,,y*)*,.d.d.d.d.d.d.d.d.d.d.d.d.d.c,u,y,-a:,O,N.d.d.d.d.d.d.d.d.d.d.d.Db5-6,M.D.d.d*,*),y,*",
".w.w.[.[.[.[.w.w.w-P-P-P-P.w.w,F,u,1.6,1,,a-.[.[.[.[.w.w.w.w.w.w.w.w.w-P*c,1.6,1ao,F.w.w.w.w.[.[.[.[.w.w.w.w-P-P-P.w.w.wa-,,,1,*",
".x.T.6.6.6,5.x.x.x.x.x.x.x.x.x.x.x.x.x.x.x.x,5.6.6.6.T.x.x.x.x.x.x.x.x.x.x.x.x.x.x.x.x.x.xbh,*.6.6bGbJ.x.x.x.x.x.x.x.x.x.x.x.x.x",
".y.U.],*.],6,)-i-i-i-i-i-i,)-i-i-i-i-i-i-i,),6.],*.].U.y-i-i-i-i-i-i-i-i-i-i-i-i-i-i,)-ibc*p,=,*,1ay-L-i-i-i-i-i-i,)-i-i-i-i-i-i",
".s.V.M,.,I,7,[.s.s.s...h-$-7.z.s.s...s.s.s,[,7,I,..M.V.s.sap-4.h.s,[,[.s.s.s.s...hb*-7,%.hbcbmbrbzbH-Z.s.s.s,B.s,%-7-0.h.s..,[.s",
"...h.Y.T,n,J.i-.-j-A..-0-7-C,R-j-A..-A-j-..i,J,n.T.Y.h,%alaq.m-v-j-@-Zalal-j-..i.$ae.#-4-h,[.hbobs,J...$-jal.Iab-4.#,w-v-v.z**-j",
".,...Z.T,o.h,]-,.*-B-Z.m-8-k.#.*.N,]-B.*-,,].h,o.T.Z,[-A---k.#.#.*.A-v.#.#.#-,,]*7.*.#.*bd...iasbt.s.i-w.*---0,m.*-F.#.#,k-*aM.*",
".-.A.0.T,p,K.S--.#-C.S-1-9-5.n.#*n*E*M.#--.S,K,p.T.0.A,S.#,l-n-3.#*aaq*b*b.#aZa5a=-3.#.#-#be..asaA.i.m*].#.#aq,4.;-E-].#-Fb]b4-3",
".*.W.1,.,q,L,9.#.#.#.#-y.:-).;*b.a*F.P-].#,9,L,q,..1.W.*.#-+.P.)-F.#,x.K-n.O.n-n-n-T.#.#.#bfbnbpbubn.(.#.#.#.#aw.C.c-T*b.#.).P.K",
".a.C.2,,,r,M.a.#.n.u.u-2.v-5.n.;.a.#.:.).#.a,M,r,,.2.C.a.#-3-T-2.n.n-+.c.o.)*b*b.:-5.a.#.n-Tbj,0*).vaw-8-F.u.ab6.c,d-]-F.u.#aF,d",
".b.D.3,,,s.D,@.a-n.c.b.c,T.#.#.C,M.#-F.#.a,@.D,s,,.3.c-E-k.#.#-F.#.C.c.v,H.#.#.#,l.c,@.a-n.c.c,0-u.d.v-;,H.b.b.c,d.;.#*Y.o.a.#-F",
".c.d.4,,,t,N.c,M,d.c.c.c,d.:.:,d.o.:.;*Y-5.c,N,t,,.4.d-).:.aaw.:.:,d.c.c-E-;-8,l,@.c.c,M,d.c.da:ao,N.c.L-E.c.c.c.b.:.:-2.c-5*Y-3",
".d.E.5,-,u,O.c.c.c.c.c.c.c.c.c.c.c.c.)*Z.%.c,O,u,-.5.E.c.c-nax.%.c.c.c.c.%.:-x.c.c.c.c.c.c,#aJ,Ua:,s*,.c.c.c.c.c.c.c.c.c.c.%,l-T",
".e.F.6,*.6,P,#,#,#,#,#,#,#,#,#,#,#,#,#,#,#,#,P.6,*.6.F.e,#,#,#,#,#,#,#,#,#,#,#,#,#,#,#,#,#-K,-,*,*bA.E,#,#,#,#,#,#,#,#,#,#,#,#,#",
".f.G.7.7.7,Q.f.f.f.f.f.f.f.f.f*c,y,y,y*c.f.f,Q.7.7.7.G.f.f.f.f.f.f.f.f.f.f.f.f,y,y,y,y.f.fbgbk.7.7bB.f.f.f.f.f.f.f.f.f*c,y,y,y,y",
".g.H.8.8.8.8.8.8.g.g.g.8.8.g.8*d-a,*.]*0*:a*.8.8.8.8.H.g.g.8.8.g.g.g.g.g.g.ga0a6,1,1a6a0.8.H.8.8.8.8.8.8.g.g.g.8.8.g*:aA.7,*,1.7",
".h.h.h.h,v.z.$,[.h.h.h-h-@,v,J*e*o,=*N*1-H.h.h.h.h.h.h.h.h-h-@,v.h.h.h.h.h,f-i-payay-p-i,f.h.h.h.h.s.$.I,v.h,vb7b@.h-Hb:*d,.bQcf",
".i.X.i....,R,;-*.i..-R-S-(....,[*p.q*O.....i.i.i...i.X.i-R-S-w...i.....X.i.i....a+a+.....i.i.X...i-@*ibO...i..,m,S.Q.....y,Vce,[",
".j.j.9.i,w,S.#.S,R,2-S,k-#-[.I.h*q.q*P.h,].m-Bae.i.9.j.j.j,;*i.j.j-j.$.j-B.A.h,[a%a%,[.h.A-B.j.$-j-B.(*a-7bV-waQ--*+-..h,2,V.M.h",
".*.*.@,m.S.*.#.*-z-D.#.#.#.(*.*m*r.q*Q*;-I.#-8.S,m.@.*.*.J-y*Y.n.)aL-7.*.*aYa1,aa%a%baa1aY.*.*-7ac.*.#.*bPb2bf.*.#.*b;b=-Q,V.l,f",
".a.n.#,c,x.n.#.#-n-E-k.#-F,H*,*g*s,.*R*3*=.u-F.#.*.#.#-k.a.L,T.n.L-;.#.#.n.Ca2a8a$a$a8a2.C.n.#,x,c.a.#.#.O,@.u.#.#.a*lb+b)bKc-,C",
".b.K.;,d.b,T.#.#-k-F.#-3-;.b.c-t*t,=*S*4.c-)*Y*b.#.#*b.u.o.c.C.#-F-k.#.#-5.c.va9a(a(a9.v.c-5.#.:.bbC.n.#.#-8.#.#.a,d.c-),d,yc*,E",
".c.L.:.c.c,d,l,l,l.P.#.)-2.c.c.d*u,-*h.d.c.c-E-x.#.C,l.:.c.c,d,l,law.a,l.o.c.c.da)a).d.c.c.o,l.o.c.v.:,l,l,T.;*Y.:.c.c.cb0,yca,N",
".c.c.c.c.c.c,:,:.%,d-T.L,:.c.c*h*v,-.5.E.c.c.%-E-T.o.%.c.c.c.c,:.%.C.).c.c.c.ea@,G,Ga@.e.c.c,:.c.c.c.c,:,:.c-x,T.%.c.cb%aJbAcba@",
".e.e.e.e.e.e.e.e.e.e.e.e.e.e.e-u.6,*.6*5*,.e.e.e.e.e.e.e.e.e.e.e.e.e.e.e.e.e*h,,,*,*,,*h.e.e.e.e.e.e.e.e.e.e.e.e.e.e*,aJ,*,*,*,*"
};
