/* XPM */
static char * C_item_xpm[] = {
"64 64 464 2",
"  	c #373045",
". 	c #312F36",
"+ 	c #2F2E2E",
"@ 	c #2F2E2F",
"# 	c #332F3A",
"$ 	c #373046",
"% 	c #353041",
"& 	c #2F2E30",
"* 	c #363043",
"= 	c #342F3C",
"- 	c #312F34",
"; 	c #302E30",
"> 	c #2D2D2D",
", 	c #3C3441",
"' 	c #4E3C59",
") 	c #4D3C58",
"! 	c #493A52",
"~ 	c #43374A",
"{ 	c #2E2D2D",
"] 	c #2E2E2E",
"^ 	c #343036",
"/ 	c #4C3B57",
"( 	c #3F3545",
"_ 	c #4A3B54",
": 	c #574166",
"< 	c #574065",
"[ 	c #4F3B62",
"} 	c #503C62",
"| 	c #574165",
"1 	c #533F61",
"2 	c #413647",
"3 	c #564065",
"4 	c #4D3A61",
"5 	c #533E63",
"6 	c #523D63",
"7 	c #4E3A61",
"8 	c #4F3D5B",
"9 	c #3F3544",
"0 	c #312F32",
"a 	c #37323A",
"b 	c #44384C",
"c 	c #564064",
"d 	c #543F63",
"e 	c #543E63",
"f 	c #43325C",
"g 	c #46345D",
"h 	c #554064",
"i 	c #553F63",
"j 	c #3B343F",
"k 	c #553F64",
"l 	c #513D62",
"m 	c #3F305B",
"n 	c #4B385F",
"o 	c #49375F",
"p 	c #40305B",
"q 	c #523D62",
"r 	c #553F62",
"s 	c #343035",
"t 	c #44384B",
"u 	c #584166",
"v 	c #41315B",
"w 	c #3F305A",
"x 	c #47355E",
"y 	c #3E2F5A",
"z 	c #3F2F5A",
"A 	c #42325C",
"B 	c #574164",
"C 	c #4A385F",
"D 	c #574064",
"E 	c #3B333F",
"F 	c #513C62",
"G 	c #44335D",
"H 	c #4F3B61",
"I 	c #543F61",
"J 	c #44374B",
"K 	c #49375E",
"L 	c #4E3C5D",
"M 	c #423554",
"N 	c #46355D",
"O 	c #3C3053",
"P 	c #3C3054",
"Q 	c #44345D",
"R 	c #403257",
"S 	c #463856",
"T 	c #45345D",
"U 	c #43335D",
"V 	c #40315B",
"W 	c #413456",
"X 	c #4A3A59",
"Y 	c #443754",
"Z 	c #3F3159",
"` 	c #3D3056",
" .	c #3B3051",
"..	c #3E2F59",
"+.	c #44335C",
"@.	c #38304C",
"#.	c #3C3055",
"$.	c #3D2F5A",
"%.	c #3A314D",
"&.	c #3B3050",
"*.	c #3D2F57",
"=.	c #3A3050",
"-.	c #3B324D",
";.	c #4D3B5C",
">.	c #38323D",
",.	c #3C2F57",
"'.	c #3C2F55",
").	c #39304E",
"!.	c #3F3450",
"~.	c #4C3B5A",
"{.	c #333034",
"].	c #3F3547",
"^.	c #4A3A5A",
"/.	c #39314B",
"(.	c #3B3053",
"_.	c #3D2F58",
":.	c #3A314E",
"<.	c #322F37",
"[.	c #3A314F",
"}.	c #39314C",
"|.	c #38314A",
"1.	c #302E32",
"2.	c #34303E",
"3.	c #3B3052",
"4.	c #3A304F",
"5.	c #322F38",
"6.	c #39314A",
"7.	c #363044",
"8.	c #383149",
"9.	c #302E33",
"0.	c #373147",
"a.	c #302E31",
"b.	c #353040",
"c.	c #332F39",
"d.	c #373146",
"e.	c #4B3B56",
"f.	c #4B3B55",
"g.	c #4C3B56",
"h.	c #46384E",
"i.	c #312F31",
"j.	c #403646",
"k.	c #363138",
"l.	c #2E2D2E",
"m.	c #423749",
"n.	c #543E64",
"o.	c #523E5F",
"p.	c #3E3544",
"q.	c #323034",
"r.	c #343136",
"s.	c #403647",
"t.	c #302F31",
"u.	c #45384C",
"v.	c #503B62",
"w.	c #513C63",
"x.	c #363139",
"y.	c #3D3442",
"z.	c #4F3D5A",
"A.	c #4D3960",
"B.	c #38323B",
"C.	c #3E3543",
"D.	c #533F60",
"E.	c #322F33",
"F.	c #47394F",
"G.	c #574066",
"H.	c #543F62",
"I.	c #4C3960",
"J.	c #48365E",
"K.	c #43335C",
"L.	c #46394F",
"M.	c #533E64",
"N.	c #3C2F56",
"O.	c #47365E",
"P.	c #35303A",
"Q.	c #383141",
"R.	c #47355F",
"S.	c #41315C",
"T.	c #4C3B5B",
"U.	c #533E62",
"V.	c #453755",
"W.	c #3D3152",
"X.	c #46355E",
"Y.	c #46355F",
"Z.	c #3C3248",
"`.	c #322F35",
" +	c #47355C",
".+	c #3D2F56",
"++	c #322E38",
"@+	c #342E3E",
"#+	c #3D3349",
"$+	c #493A50",
"%+	c #533F58",
"&+	c #3D3532",
"*+	c #493B4A",
"=+	c #38314B",
"-+	c #362F43",
";+	c #312E34",
">+	c #3B2F54",
",+	c #312F35",
"'+	c #3E334A",
")+	c #674C42",
"!+	c #7F5B39",
"~+	c #93692E",
"{+	c #A4741F",
"]+	c #A4741E",
"^+	c #A4741C",
"/+	c #A3731E",
"(+	c #815D38",
"_+	c #7D5A3A",
":+	c #463849",
"<+	c #34303D",
"[+	c #383147",
"}+	c #3E334B",
"|+	c #674C43",
"1+	c #A87821",
"2+	c #AA7C22",
"3+	c #BB963B",
"4+	c #C9AC4B",
"5+	c #C8AA4A",
"6+	c #AC7E25",
"7+	c #AA7B22",
"8+	c #A37320",
"9+	c #815D39",
"0+	c #373044",
"a+	c #342F3D",
"b+	c #342F3E",
"c+	c #332F3C",
"d+	c #3E343C",
"e+	c #916728",
"f+	c #A77820",
"g+	c #D6BF58",
"h+	c #E2CE61",
"i+	c #E3CF62",
"j+	c #E4D163",
"k+	c #E1CD61",
"l+	c #CAAE4C",
"m+	c #B7933A",
"n+	c #7E5B2F",
"o+	c #3B333C",
"p+	c #302E2F",
"q+	c #353137",
"r+	c #3D3533",
"s+	c #926825",
"t+	c #BA963B",
"u+	c #D7BF58",
"v+	c #D9C34D",
"w+	c #CEB52C",
"x+	c #CDB42A",
"y+	c #D8C34C",
"z+	c #D9C44E",
"A+	c #CAAD4B",
"B+	c #A8781F",
"C+	c #71532E",
"D+	c #353136",
"E+	c #3A332D",
"F+	c #946932",
"G+	c #BC983C",
"H+	c #E2CF62",
"I+	c #D3BC3E",
"J+	c #CCB325",
"K+	c #CDB428",
"L+	c #D7C14B",
"M+	c #C9AD3A",
"N+	c #A77721",
"O+	c #745354",
"P+	c #3B3440",
"Q+	c #554063",
"R+	c #4D3C57",
"S+	c #373233",
"T+	c #936932",
"U+	c #C2A422",
"V+	c #A67621",
"W+	c #735356",
"X+	c #493A53",
"Y+	c #423748",
"Z+	c #3D2E5A",
"`+	c #503C61",
" @	c #654B2F",
".@	c #A87822",
"+@	c #DECA58",
"@@	c #CBB225",
"#@	c #B28A1E",
"$@	c #966B3A",
"%@	c #5A4365",
"&@	c #4E3A60",
"*@	c #4D3A60",
"=@	c #4E3B61",
"-@	c #413648",
";@	c #45345C",
">@	c #48394A",
",@	c #936924",
"'@	c #CAB024",
")@	c #BB9A21",
"!@	c #BB9820",
"~@	c #C4A623",
"{@	c #A47422",
"]@	c #5E4562",
"^@	c #4B395F",
"/@	c #513D61",
"(@	c #3E344F",
"_@	c #3E3056",
":@	c #3E3057",
"<@	c #3D334F",
"[@	c #533E61",
"}@	c #4E3E49",
"|@	c #DFCA59",
"1@	c #CBB125",
"2@	c #AC7F1F",
"3@	c #C8AB49",
"4@	c #BB9923",
"5@	c #A97B1C",
"6@	c #865F4A",
"7@	c #433654",
"8@	c #3D3153",
"9@	c #3E2F5B",
"0@	c #3C324F",
"a@	c #4B3A5A",
"b@	c #3A3341",
"c@	c #443755",
"d@	c #7E5B35",
"e@	c #E2CE62",
"f@	c #AC7F22",
"g@	c #E3CF63",
"h@	c #DFCB5A",
"i@	c #BB9921",
"j@	c #A37322",
"k@	c #46393F",
"l@	c #333036",
"m@	c #3C334E",
"n@	c #39304D",
"o@	c #403551",
"p@	c #936827",
"q@	c #A9791B",
"r@	c #7D5A2F",
"s@	c #43364A",
"t@	c #A4741D",
"u@	c #7E5B2E",
"v@	c #322F39",
"w@	c #3E3539",
"x@	c #CCB225",
"y@	c #BB901F",
"z@	c #CBB025",
"A@	c #7E5B28",
"B@	c #35303F",
"C@	c #34303F",
"D@	c #3C3430",
"E@	c #BC871E",
"F@	c #CCA323",
"G@	c #A9771B",
"H@	c #7D5B26",
"I@	c #332F3B",
"J@	c #333035",
"K@	c #302F30",
"L@	c #3E3534",
"M@	c #DCC757",
"N@	c #C48C1F",
"O@	c #BB9920",
"P@	c #CCA322",
"Q@	c #7E5B2A",
"R@	c #3A333F",
"S@	c #58425E",
"T@	c #A47423",
"U@	c #AB7E1F",
"V@	c #D1B93B",
"W@	c #BD871E",
"X@	c #CD9B21",
"Y@	c #845E49",
"Z@	c #45384D",
"`@	c #513E5D",
" #	c #886149",
".#	c #AA7D1C",
"+#	c #CDA423",
"@#	c #C58B1F",
"##	c #A67521",
"$#	c #5D4561",
"%#	c #6E4F53",
"&#	c #CCB125",
"*#	c #B37E1C",
"=#	c #453458",
"-#	c #A37323",
";#	c #AC7F1C",
">#	c #CAA823",
",#	c #BC861E",
"'#	c #CDAA24",
")#	c #CD9220",
"!#	c #835E4A",
"~#	c #543F64",
"{#	c #533E5F",
"]#	c #42325B",
"^#	c #4A3B53",
"/#	c #805B43",
"(#	c #AC7E24",
"_#	c #D6BF49",
":#	c #C9AF24",
"<#	c #AC7E1C",
"[#	c #AB7B1C",
"}#	c #BC9920",
"|#	c #CF9420",
"1#	c #A57521",
"2#	c #4B3758",
"3#	c #48365F",
"4#	c #533F5F",
"5#	c #3C3347",
"6#	c #40354E",
"7#	c #463458",
"8#	c #926836",
"9#	c #B38C21",
"0#	c #CE9C22",
"a#	c #CE9120",
"b#	c #926736",
"c#	c #423259",
"d#	c #403258",
"e#	c #403550",
"f#	c #302F32",
"g#	c #3B3344",
"h#	c #423456",
"i#	c #3A304E",
"j#	c #4A3658",
"k#	c #A37321",
"l#	c #CDAB24",
"m#	c #CE9C21",
"n#	c #B47F1D",
"o#	c #443554",
"p#	c #373048",
"q#	c #363042",
"r#	c #694C46",
"s#	c #A6771E",
"t#	c #CF9320",
"u#	c #CD9120",
"v#	c #443553",
"w#	c #383148",
"x#	c #A7771D",
"y#	c #C3A523",
"z#	c #CDAC24",
"A#	c #CEA423",
"B#	c #CEA322",
"C#	c #BC851E",
"D#	c #A9771D",
"E#	c #926830",
"F#	c #43364C",
"G#	c #CC9A21",
"H#	c #BD851E",
"I#	c #BC841E",
"J#	c #AA781B",
"K#	c #694D41",
"L#	c #322F36",
"M#	c #3C3344",
"N#	c #664B3D",
"O#	c #936929",
"P#	c #A7771C",
"Q#	c #A3731F",
"R#	c #7F5B35",
"S#	c #453743",
"T#	c #363130",
"U#	c #3B342F",
"V#	c #634A2B",
"W#	c #7D5B27",
"X#	c #7E5B27",
"Y#	c #7C5A27",
"Z#	c #40362F",
"`#	c #3B332F",
" $	c #38304A",
".$	c #413552",
"+$	c #312F33",
"@$	c #42374B",
"        . + @ + # $                                   % @ @ @ & *                             $ = + @ + -                       ",
"@ & ; ; ; & & & ; ; ; ; ; ; ; ; ; ; ; ; ; & & & & ; ; ; & & & & ; ; ; ; ; ; ; ; ; ; & & @ & ; ; ; & & & ; ; ; ; ; ; ; ; ; ; ; ; ",
"> , ' ) ) ) ) ) ) ) ) ) ) ) ) ) ) ) ) ) ! ; @ @ ; ! ) ) ) ) ) ) ) ) ) ) ) ) ) ) ' ~ { @ ] ^ / ) ) ) ) ) ) ) ) ) ) ) ) ) ) ) ) ) ",
"( _ : < < < < < < < < [ } | < < < < < < 1 2 ^ ^ 2 1 < < < < < 3 4 5 | < | 6 7 3 : 8 9 0 a b c < < < < < < < | 6 7 3 < < < < < < ",
"< 3 c 5 5 d c e 5 5 5 f g d c c h 5 5 i c < j j < c i 5 5 h k l m n i c d o p q k c r s t u c d 5 e c d 5 5 e o p q k c c e 5 5 ",
"c c 5 v w x k f p p p y z A d B } p w C D c E E c D C w p F 7 m y z g c G z y m H D I s J < c g w A i K w p p w y m H B k f p p ",
"| L M y y v N w y y y O P z N x Q y y R S c j j c S R y y T U y y y V N p y y y W X r s t d Y Z y w N v y y y `  ...+.x N w y y ",
"L Y @.#...y $.y y ..` %.&.y $.$.y y *.=.-.;.>.>.;.-.=.*.y ,.'.` y y y $.y y ..` ).!.~.{.].^./.(._.y $.y y y *.&.%...y $.$.y _.#.",
"/./././.#.y y ..y *././. .y ..y y ..:./././.<.<./././.:...[./.}._.......y y *.}././.|.1.2.}././. .y y y ....:./.%.....y y y 3./.",
"}./././.}.3.y 4.%.%././.}.%.%.#.*.%./././.}.5.5.}./././.%.}././.%.%.%.:._.#.%./././.6.1.2.}././.}.[...O %.%./././.%.%.3.y 4.}./.",
"= 7.}././.:.3.}./././././././.&. ./././.8.2.9.9.2.8././././././././././. .[././.}.0.= a.. b./././.}.3.:./././././././.:.3.}././.",
"+ c.0.$ $ $ d.$ $ $ $ $ $ $ $ $ d.$ $ $ * & @ @ & * $ $ $ $ $ $ $ $ $ $ d.$ $ $ 0.2.+ @ + 9.  $ $ $ d.$ $ $ $ $ $ $ $ $ d.$ $ $ ",
"@ & & & & & & & & & & & & & & & & & & & & @ @ @ @ & & & & & & & & & & & & & & & & & @ @ @ @ & & & & & & & & & & & & & & & & & & ",
"e.f.e.g.g.f.f.f.g.h.@ @ + i.! e.f.f.f.f.e.g.g.f.e.f.f.f.f.g.j.{ @ { k.f.f.f.f.f.f.g.g.e.f.e.f.g.g.f.f.f.f.f.s ] @ l.m.g.f.f.f.f.",
"< < 3 7 n.| < < : o.p.q.r.s.r < < < < < 3 7 n.| < < < < < : ) , t.a u.< < < < < | n.7 3 < < < v.w.| < < < c ~ x.i.y.z.: < < < < ",
"c k F z A.d d d d d c B.C.< d d d c d d F z A.k c d d d d h 3 D.E.F.: c d d d c k A.z F k c d f N d d d d d G.t s H.k d d c k d ",
"B I.p y p V V V p T c B.C.k A p N c T p p y m J.h K.V V v F | o.E.L.| c T p K.h J.w y p I.5 v z w V V V V v M.t s I J.p v e n p ",
"J.K.y y y y y 3.N.p O.P.Q.R.m y V O.p y .. .*.S.x m y _. .M T.D.E.F.U.V.W.'.m x S.y y y K.X.y y y y y P O y Y.Z.`. +S.y y x f y ",
"N.N.` ` ` ` ` }. ..+N.++@+,..+` .+N..+.+#./.3..+N..+.+P /.#+$+%+&+*+^.=+6.&..+N..+*.y y _.N..+` ` ` .+4.%.` *.-+;+>+.+` .+N.N.` ",
"/./././././././././.6.,+c./././././././././././././.'+)+!+~+{+]+^+/+(+_+:+/./././.&.y y 3././././././././././.<+1.8././././././.",
"}.}.}.}.}.}.}.}.}.[+,+& a.<.|.}.}.}.}.}.}.}.}.}.}+|+~+1+2+3+4+4+4+5+6+7+8+9+|+}.}.%.[.[.%.}.}.}.}.}.}.}.}./.c.1.& - 0+}.}.}.}.}.",
"2.2.2.a+a+a+a+a+b+# + + + @ c+a+a+a+2.2.2.2.b+d+e+f+3+g+h+i+j+j+j+j+h+k+l+4+m+n+o+a+a+2.2.2.2.b+a+a+a+a+a+a+a.] + ] 5.b+a+a+2.2.",
"+ + p+^ r.r.r.r.r.r.q+q+q+q+r.r.r.^ ; + + + r+s+t+u+i+v+w+x+x+x+x+x+x+w+y+z+A+B+C+r.^ p++ + + {.r.r.r.r.r.r.D+q+q+q+r.r.r.r.0 + ",
"@ + ^ o.I I I I I I I I I I I I I D.x.] @ E+F+G+H+z+I+J+J+J+J+J+J+J+J+J+J+K+L+M+N+O+o.^ + @ @ _ r I I I I I I I I I I I I r j.{ ",
"] P+g.Q+c c c D B 5 N T I.B c c c c R+y.S+T+t+H+v+K+J+J+J+J+J+J+J+J+J+J+J+J+J+J+U+V+W+g.j s ! D.c D c c D c o T J.c c c D c 8 X+",
"] Y+u c } } c H 7 n y Z++.H h F `+c u b  @.@g++@K+J+J+J+J+J+J+J+J+J+J+J+J+J+J+J+@@#@$@%@2 k.c c 5 H h l 7 &@v Z+p *@e e =@k < < ",
"] -@< d ;@T e v y y ......p 5 X.K.H.< >@,@3+i+w+J+J+J+J+J+'@)@!@!@~@J+J+J+J+J+J+J+)@{@]@2 k.Q+Q+^@p 5 x Z+y ......y 7 7 w /@Q+c ",
"] Y+d (@_@m v y y _.%.}.3.y v m :@<@[@}@^+l+|@K+J+J+J+J+1@2@5+4+3@4@~@J+J+J+J+J+J+'@5@6@2 k.Q+7@8@9@v w y y &.}.:...V p y 0@a@| ",
"] b@V./.4.#.y y ` &./. ..+y y #.&./.c@d@7+e@y+J+J+J+J+J+1@f@g@h@I+i@!@J+J+J+J+J+J+J+!@j@k@l@V.m@n@O ..y _.3.}.[.#.y y *. .}.o@S ",
"+ c+/./.6.[.*.*.&.6./.P *.*.*.4.6./.'+p@3+i+w+J+J+J+J+J+1@f@g@v+J+!@!@J+J+J+J+J+J+J+'@q@r@;+|././.}.` *.P /./. .*.*.*.O /././.|.",
"+ = /./././././././././././././././.s@t@4+j+x+J+J+J+J+J+1@f@g@v+J+!@!@J+J+J+J+J+J+J+1@q@u@- 6./././././././././././././././././.",
"@ 1.v@/.}.}.}.}.}.}.}.}.}.}.}.}.}./.w@^+4+j+x+J+J+J+J+J+1@f@g@v+x@y@!@J+J+J+J+J+J+J+z@q@A@& . $ }.}.}.}.}.}.}.}.}.}.}.}.}.}.b.,+",
"@ + & 2.B@B@B@B@B@C@B@B@B@B@B@B@B@2.D@^+4+j+x+J+J+J+J+J+1@f@H+I+x@E@!@J+J+J+J+J+J+J+F@G@H@@ + I@B@B@B@B@B@B@B@B@B@B@B@B@B@B@. ] ",
"J@J@J@{.K@+ @ + 0 J@{.{.{.{.{.{.{.{.L@t@4+j+x+J+J+J+J+J+1@f@M@K+x@N@O@J+J+J+J+J+J+J+P@G@Q@J@J@J@0 + @ + ; {.{.{.{.{.{.{.{.{.J@J@",
"D.D.D.1 R@{ @ { m.I D.D.D.D.D.D.D.D.S@T@5+j+x+J+J+J+J+J+1@U@V@J+x@W@!@J+J+J+J+J+J+x@X@G@Y@D.D.I Z@] @ ] B.D.D.D.D.D.D.D.D.D.D.D.",
"D D D c < X+i.`@c c c +.O.B D c c D D  #6+e@w+J+J+J+J+J+1@.#1@J+x@E@!@J+J+J+J+J+J++#@###$#D D c c o.E.L.< c B n v h D c c D D D ",
"n n I.c < X+i.`@< d n v f n n q e n n %#.@g+y+J+J+J+J+J+1@.#1@J+&#E@!@J+J+J+J+J+x@X@*#$@[@C n 5 D o.E.L.< c *@T m C n H c I.n n ",
"$.$.V l 3 X+i.`@k =@y y y $.Z+n 7 y $.=#-#5+v+J+J+J+J+J+1@;#>#P@X@,#)@J+J+J+J+J+'#)#G@!#O.Z+y *@~#{#E.F.3 q ]#$.y y Z+Q q V $.$.",
"y y y w v.^#i.`@C y y y y y y w w y y y /#(#_#J+J+J+J+J+J+:#<#[#[#}#@@J+J+J+J+&#|#@#1#2#z y y y 3#4#E.F.w.m y y y y y y w y y y ",
"y y y y W 5#a.6#R y y y y y y y _.&.4.P 7#8#9#1@J+J+J+J+J+J+1@1@1@@@J+J+J+J+x@0#a#*#b#c#y y y y d#e#f#g#h#y y y y y y y y  .4.4.",
"y y ..#.i#% & $ &.` y y y y y *.3./.[.#.y j#k#!@J+J+J+J+J+J+J+J+J+J+J+J+J+l#m#a#n#8#o#..y y y *. .p#a.B@i##...y y y y _.P }.%.&.",
"y y *.}.}.q#& [+/.:...y y ....&././..+y y ..r#s#U+@@J+J+J+J+J+J+J+J+J+J+'#t#u#n#8#v#}.*.y y ..[./.w#a.b.}./..+y y ....P /./.O y ",
"9@P }./.}.q#& w#/./.%.*.#.%.%.}././.}.O ..:.}.!+x##@y#@@J+J+J+J+J+z#A#B#)#C#D#E#F#}./.}.P _.%././.8.a.b.}./.}.O ..:.%.}././.}.%.",
"3.[./.}.% <.& c.0+}./. .&././././././.[. .}./.'+)+~+x##@!@y#1@z@F@G#H#I#J#8+K#'+/./././.[. ./.}.  # & L#b././.[. .}././././././.",
"        . + @ + # $                               M#N#O#^+P#q@q@G@G@]+Q#R#S#                  $ = + @ + -                       ",
"@ & ; ; ; & & & ; ; ; ; ; ; ; ; ; ; ; ; ; & & & & ; ; T#U#V#W#W#X#Y#Z#`#; ; ; ; ; ; & & @ & ; ; ; & & & ; ; ; ; ; ; ; ; ; ; ; ; ",
"> , ' ) ) ) ) ) ) ) ) ) ) ) ) ) ) ) ) ) ! ; @ @ ; ! ) ) ) ) ) ) ) ) ) ) ) ) ) ) ' ~ { @ ] ^ / ) ) ) ) ) ) ) ) ) ) ) ) ) ) ) ) ) ",
"( _ : < < < < < < < < [ } | < < < < < < 1 2 ^ ^ 2 1 < < < < < 3 4 5 | < | 6 7 3 : 8 9 0 a b c < < < < < < < | 6 7 3 < < < < < < ",
"< 3 c 5 5 d c e 5 5 5 f g d c c h 5 5 i c < j j < c i 5 5 h k l m n i c d o p q k c r s t u c d 5 e c d 5 5 e o p q k c c e 5 5 ",
"c c 5 v w x k f p p p y z A d B } p w C D c E E c D C w p F 7 m y z g c G z y m H D I s J < c g w A i K w p p w y m H B k f p p ",
"| L M y y v N w y y y O P z N x Q y y R S c j j c S R y y T U y y y V N p y y y W X r s t d Y Z y w N v y y y `  ...+.x N w y y ",
"L Y @.#...y $.y y ..` %.&.y $.$.y y *.=.-.;.>.>.;.-.=.*.y ,.'.` y y y $.y y ..` ).!.~.{.].^./.(._.y $.y y y *.&.%...y $.$.y _.#.",
"/./././.#.y y ..y *././. .y ..y y ..:./././.<.<./././.:...[./.}._.......y y *.}././.|.1.2.}././. .y y y ....:./.%.....y y y 3./.",
"}./././.}.3.y 4.%.%././.}.%.%.#.*.%./././.}.5.5.}./././.%.}././.%.%.%.:._.#.%./././.6.1.2.}././.}.[...O %.%./././.%.%.3.y 4.}./.",
"= 7.}././.:.3.}./././././././.&. ./././.8.2.9.9.2.8././././././././././. .[././.}.0.= a.. b./././.}.3.:./././././././.:.3.}././.",
"+ c.0.$ $ $ d.$ $ $ $ $ $ $ $ $ d.$ $ $ * & @ @ & * $ $ $ $ $ $ $ $ $ $ d.$ $ $ 0.2.+ @ + 9.  $ $ $ d.$ $ $ $ $ $ $ $ $ d.$ $ $ ",
"@ & & & & & & & & & & & & & & & & & & & & @ @ @ @ & & & & & & & & & & & & & & & & & @ @ @ @ & & & & & & & & & & & & & & & & & & ",
"e.f.e.g.g.f.f.f.g.h.@ @ + i.! e.f.f.f.f.e.g.g.f.e.f.f.f.f.g.j.{ @ { k.f.f.f.f.f.f.g.g.e.f.e.f.g.g.f.f.f.f.f.s ] @ l.m.g.f.f.f.f.",
"< < 3 7 n.| < < : o.p.q.r.s.r < < < < < 3 7 n.| < < < < < : ) , t.a u.< < < < < | n.7 3 < < < v.w.| < < < c ~ x.i.y.z.: < < < < ",
"c k F z A.d d d d d c B.C.< d d d c d d F z A.k c d d d d h 3 D.E.F.: c d d d c k A.z F k c d f N d d d d d G.t s H.k d d c k d ",
"B I.p y p V V V p T c B.C.k A p N c T p p y m J.h K.V V v F | o.E.L.| c T p K.h J.w y p I.5 v z w V V V V v M.t s I J.p v e n p ",
"J.K.y y y y y 3.N.p O.P.Q.R.m y V O.p y .. .*.S.x m y _. .M T.D.E.F.U.V.W.'.m x S.y y y K.X.y y y y y P O y Y.Z.`. +S.y y x f y ",
"N.N.` ` ` ` ` }. ..+N.++@+,..+` .+N..+.+#./.3..+N..+.+P /. $.$~.+$@$^.=+6.&..+N..+*.y y _.N..+` ` ` .+4.%.` *.-+;+>+.+` .+N.N.` ",
"/./././././././././.6.,+c././././././././././././././././././.w#a.b./././././././.&.y y 3././././././././././.<+1.8././././././."};
