/* XPM */
static char *graphic[] = {
"64 64 451 2",
".. c #000000",
"., c #101022",
".- c #1C1D3E",
".* c #202146",
".a c #202145",
".b c #191A36",
".c c #0B0C18",
".d c #101124",
".e c #343672",
".f c #5153AF",
".g c #585BC0",
".h c #585BBF",
".i c #575ABF",
".j c #575ABE",
".k c #575ABD",
".l c #464999",
".m c #23254E",
".n c #090914",
".o c #303268",
".p c #5457B8",
".q c #5F62CF",
".r c #5E61CC",
".s c #5D61CB",
".t c #5D60CB",
".u c #5D60CA",
".v c #5C60CA",
".w c #5C5FCA",
".x c #5C5FC9",
".y c #5C5FC8",
".z c #5B5FC7",
".A c #5B5EC7",
".B c #5B5EC6",
".C c #585BBE",
".D c #4B4EA4",
".E c #3A3C7E",
".F c #1A1B39",
".G c #41448E",
".H c #595CC3",
".I c #6367D9",
".J c #676BE2",
".K c #666ADE",
".L c #6569DD",
".M c #6569DC",
".N c #6568DC",
".O c #6568DB",
".P c #6468DB",
".Q c #6468DA",
".R c #6467DA",
".S c #6467D9",
".T c #6367D8",
".U c #6367D7",
".V c #6366D7",
".W c #6366D6",
".X c #6266D6",
".Y c #6266D5",
".Z c #6265D5",
".0 c #6265D4",
".1 c #6165D4",
".2 c #6164D4",
".3 c #6164D3",
".4 c #6064D3",
".5 c #6063D2",
".6 c #4B4DA3",
".7 c #424590",
".8 c #444694",
".9 c #24254E",
".@ c #6063D1",
".# c #6D71EE",
".; c #7175F6",
".: c #6F73F3",
".= c #6F73F2",
".+ c #6F73F1",
".% c #6F72F0",
".$ c #6E72F0",
".( c #6E72EF",
".) c #6E71EF",
".[ c #6D71ED",
".] c #6D70ED",
",. c #6C70EC",
",, c #6C70EB",
",- c #6C6FEB",
",* c #6B6FEA",
",a c #6B6FE9",
",b c #6B6EE9",
",c c #6A6EE8",
",d c #6A6EE7",
",e c #6A6DE6",
",f c #696DE6",
",g c #696DE5",
",h c #696CE5",
",i c #696CE4",
",j c #686CE3",
",k c #686BE2",
",l c #686BE1",
",m c #3E4088",
",n c #40428C",
",o c #7276F9",
",p c #7579FF",
",q c #767AFF",
",r c #777BFF",
",s c #777AFF",
",t c #767AFE",
",u c #7579FE",
",v c #7578FD",
",w c #7478FC",
",x c #7478FB",
",y c #7478FA",
",z c #7377FA",
",A c #7377F9",
",B c #7376F8",
",C c #7276F7",
",D c #7276F6",
",E c #7275F6",
",F c #6C6FEA",
",G c #4E51AB",
",H c #3B3E82",
",I c #3C3E83",
",J c #787BFF",
",K c #8B8EFF",
",L c #9699FF",
",M c #9599FF",
",N c #9598FF",
",O c #9597FF",
",P c #9497FF",
",Q c #9396FF",
",R c #9296FF",
",S c #9295FF",
",T c #9294FF",
",U c #9194FF",
",V c #9093FF",
",W c #8F92FF",
",X c #8E92FF",
",Y c #8E91FF",
",Z c #8D90FF",
",0 c #8C8FFF",
",1 c #8B8FFF",
",2 c #8A8EFF",
",3 c #8A8DFF",
",4 c #898CFF",
",5 c #888CFF",
",6 c #888BFF",
",7 c #6264C6",
",8 c #3F418A",
",9 c #393B7C",
",@ c #7A7EFF",
",# c #CECFFF",
",; c #FFFFFF",
",: c #FEFEFF",
",= c #FCFCFF",
",+ c #FAFAFF",
",% c #F8F8FF",
",$ c #F6F6FF",
",( c #F4F4FF",
",) c #F1F1FF",
",[ c #EFEFFF",
",] c #EDEDFF",
"-. c #EBEBFF",
"-, c #E8E9FF",
"-- c #E6E7FF",
"-* c #E4E5FF",
"-a c #E2E3FF",
"-b c #E0E1FF",
"-c c #DEDFFF",
"-d c #DCDDFF",
"-e c #DADBFF",
"-f c #D8D9FF",
"-g c #D6D7FF",
"-h c #D4D5FF",
"-i c #D2D3FF",
"-j c #D0D1FF",
"-k c #CFD0FF",
"-l c #CDCEFF",
"-m c #7778C1",
"-n c #3E4087",
"-o c #7276F8",
"-p c #FDFDFF",
"-q c #FBFBFF",
"-r c #F9F9FF",
"-s c #F7F7FF",
"-t c #F5F5FF",
"-u c #F2F3FF",
"-v c #F0F1FF",
"-w c #EEEEFF",
"-x c #ECECFF",
"-y c #EAEAFF",
"-z c #E8E8FF",
"-A c #E5E6FF",
"-B c #E3E4FF",
"-C c #E1E2FF",
"-D c #DFE0FF",
"-E c #DDDEFF",
"-F c #DBDCFF",
"-G c #D9DAFF",
"-H c #D7D8FF",
"-I c #D6D6FF",
"-J c #D3D4FF",
"-K c #5F63D1",
"-L c #F1F2FF",
"-M c #EFF0FF",
"-N c #EDEEFF",
"-O c #E9E9FF",
"-P c #E7E7FF",
"-Q c #E5E5FF",
"-R c #E3E3FF",
"-S c #E1E1FF",
"-T c #DFDFFF",
"-U c #DDDDFF",
"-V c #DBDBFF",
"-W c #D5D6FF",
"-X c #D1D2FF",
"-Y c #CCCDFF",
"-Z c #40438C",
"-0 c #5F63D0",
"-1 c #696DE4",
"-2 c #EEEFFF",
"-3 c #ECEDFF",
"-4 c #7679C1",
"-5 c #F3F4FF",
"-6 c #EBECFF",
"-7 c #E9EAFF",
"-8 c #E7E8FF",
"-9 c #CBCCFF",
"-@ c #686CE4",
"-# c #F4F5FF",
"-; c #EAEBFF",
"-: c #D9D9FF",
"-= c #CACCFF",
"-+ c #7678C1",
"-% c #3D3F83",
"-$ c #41438C",
"-( c #7A7DFF",
"-) c #F3F3FF",
"-[ c #DADAFF",
"-] c #CBCDFF",
"*. c #CACBFF",
"*, c #393B7D",
"*- c #5F62D0",
"** c #F5F6FF",
"*a c #F2F2FF",
"*b c #F0F0FF",
"*c c #E6E6FF",
"*d c #E4E4FF",
"*e c #CCCEFF",
"*f c #C9CBFF",
"*g c #3F4188",
"*h c #3A3B7D",
"*i c #797DFF",
"*j c #CDCFFF",
"*k c #F9FAFF",
"*l c #DCDCFF",
"*m c #C9CAFF",
"*n c #7578C1",
"*o c #3A3C7D",
"*p c #E2E2FF",
"*q c #C8C9FF",
"*r c #3F4189",
"*s c #3D3F84",
"*t c #7275F7",
"*u c #D0D2FF",
"*v c #C7C9FF",
"*w c #7577C1",
"*x c #7175F7",
"*y c #DEDEFF",
"*z c #C7C8FF",
"*A c #7577C2",
"*B c #C6C7FF",
"*C c #D2D4FF",
"*D c #C5C7FF",
"*E c #7477C2",
"*F c #676BE1",
"*G c #D1D3FF",
"*H c #CED0FF",
"*I c #C5C6FF",
"*J c #41438D",
"*K c #676BE0",
"*L c #C6C8FF",
"*M c #C4C5FF",
"*N c #7476C2",
"*O c #3B3C7F",
"*P c #3D3F85",
"*Q c #CFD1FF",
"*R c #C8CAFF",
"*S c #C4C6FF",
"*T c #C3C4FF",
"*U c #3F428A",
"*V c #3B3D7F",
"*W c #41438E",
"*X c #676AE0",
"*Y c #C2C4FF",
"*Z c #7376C2",
"*0 c #595CC2",
"*1 c #5F62CE",
"*2 c #D7D7FF",
"*3 c #C2C3FF",
"*4 c #7375C2",
"*5 c #676ADF",
"*6 c #7174F6",
"*7 c #797CFF",
"*8 c #C3C5FF",
"*9 c #C1C2FF",
"*@ c #3F428B",
"*# c #3B3D80",
"*; c #3D4085",
"*: c #666ADF",
"*= c #787CFF",
"*+ c #C1C3FF",
"*% c #C0C1FF",
"*$ c #7275C2",
"*( c #3D4086",
"*) c #7074F5",
"*[ c #C0C2FF",
"*] c #BFC1FF",
"a. c #40428B",
"a, c #3E4086",
"a- c #585CC2",
"a* c #5E62CE",
"aa c #E0E0FF",
"ab c #BEC0FF",
"ac c #7274C2",
"ad c #3B3D81",
"ae c #444695",
"af c #24254F",
"ag c #6669DE",
"ah c #D8D8FF",
"ai c #BFC0FF",
"aj c #BEBFFF",
"ak c #585BC2",
"al c #5E61CD",
"am c #7074F4",
"an c #BDBEFF",
"ao c #7174C2",
"ap c #3C3E81",
"aq c #787CFE",
"ar c #BDBFFF",
"as c #BCBDFF",
"at c #3C3E82",
"au c #444795",
"av c #24264F",
"aw c #787BFE",
"ax c #BCBEFF",
"ay c #BBBDFF",
"az c #7173C2",
"aA c #585BC1",
"aB c #777BFE",
"aC c #BBBCFF",
"aD c #BABCFF",
"aE c #6F72F1",
"aF c #777BFD",
"aG c #B9BBFF",
"aH c #B8BAFF",
"aI c #BABBFF",
"aJ c #B9BAFF",
"aK c #7172C2",
"aL c #41448F",
"aM c #767AFD",
"aN c #B7B8FF",
"aO c #7072C3",
"aP c #42448F",
"aQ c #767AFC",
"aR c #B6B7FF",
"aS c #B7B9FF",
"aT c #3E4188",
"aU c #5E61CB",
"aV c #6E71EE",
"aW c #B4B6FF",
"aX c #B6B8FF",
"aY c #B3B5FF",
"aZ c #B5B7FF",
"a0 c #6F71C3",
"a1 c #B2B4FF",
"a2 c #41438F",
"a3 c #7579FB",
"a4 c #B1B2FF",
"a5 c #424490",
"a6 c #6366D8",
"a7 c #AFB1FF",
"a8 c #7579FA",
"a9 c #AEB0FF",
"a@ c #6E70C3",
"a# c #3D3F86",
"a; c #ADAFFF",
"a: c #6F72EE",
"a= c #9799EB",
"a+ c #B0B1EA",
"a% c #AFB0EA",
"a$ c #AEB0EA",
"a( c #AEAFEA",
"a) c #ADAEEA",
"a[ c #ACAEEA",
"a] c #ACADEA",
"b. c #ABADEA",
"b, c #AAACEA",
"b- c #AAABEA",
"b* c #A9ABEA",
"ba c #A9AAEB",
"bb c #A8A9EB",
"bc c #A7A9EB",
"bd c #A6A9EB",
"be c #A6A8EB",
"bf c #A6A7EB",
"bg c #A5A7EB",
"bh c #A4A6EB",
"bi c #A3A5EB",
"bj c #A2A4EB",
"bk c #A1A3EB",
"bl c #A1A2EB",
"bm c #A0A2EB",
"bn c #9FA1EB",
"bo c #9EA0EB",
"bp c #9E9FEB",
"bq c #9D9FEB",
"br c #9C9EEB",
"bs c #9B9DEB",
"bt c #6567B8",
"bu c #454795",
"bv c #25264F",
"bw c #5456B6",
"bx c #47499B",
"by c #464898",
"bz c #464899",
"bA c #46499A",
"bB c #47499A",
"bC c #474A9B",
"bD c #484A9B",
"bE c #484A9C",
"bF c #424591",
"bG c #454796",
"bH c #383A7A",
"bI c #383A7B",
"bJ c #383A7C",
"bK c #393A7C",
"bL c #3A3C7F",
"bM c #3C3F84",
"bN c #4A4DA2",
"bO c #3C3E84",
"bP c #5356B5",
"bQ c #4B4DA2",
"bR c #40428A",
"bS c #22234A",
"bT c #252650",
"bU c #434591",
"bV c #434592",
"bW c #434692",
"bX c #434693",
"bY c #444693",
"bZ c #2F3166",
"b0 c #15162E",
"b1 c #1E1F41",
"b2 c #353672",
"b3 c #3B3D82",
"b4 c #303168",
"................................................................................................................................",
"................................................................................................................................",
"................................................................................................................................",
"................................................................................................................................",
"................................................................................................................................",
"................................................................................................................................",
"...............d.o.G.G.G.G.G.G.G.G.G.G.G.G.G.G.G.G.G.G.G.G.G*W*W*W*W*W*W*W*W*W*W*W*W*W*W*W*W*W*W*W*W*J*J*J*J*J*J*sbT............",
".............,.e.p.H.H.H.H.H.H.H.H.H.H.H.H.H.H.H.H.H.H.H.H.H.H*0*0*0*0a-a-akakakaAaAaAaAaAaAaAaAaA.g.g.g.g.g.g.gbPatb1..........",
".............-.f.q.I.@.@.@.@.@-K-0-0-0-0*-*-*-.q.q.q.q.q.q.q.q*1*1*1*1a*a*alalalal.r.r.r.raU.s.s.t.u.u.u.u.u.v*0bQaPb2..........",
".............*.g.r.J.#,g,g,g,g,g-1,i-@-@,j,j,j,k,k,k,l*F*K*K*X*X*5*:*:.Kag.L.L.M.N.O.O.P.P.R.R.I.Ia6a6.V.V.V.rbN,n.7ad..........",
".............*.g.s.K.;,o,o,o-o-o-o-o-o-o-o,C,C*t*x*x*x*x.;.;.;.;*6*6*)*)*)am.:.:.=aEaE.$.(aV.#.[,.,.,-,*,*.N.D*s-nbFad..........",
".............*.g.s.L.:,p,J,@,@,@,@,@,@-(-(*i*i*i*i*i*i*i*i*i*i*i*7*=*=*=*=*=aqawaBaFaFaMaQaQaQaQa3a3a8a8a:bwad.E-nbFad..........",
".............*.g.s.L.:,q,K,#,#,#,#,#,#,#,#*j*j*j*j*j*j-l-]-=*f*v*B*S*8*+*[aiarasaCaGaHaNaRaWaYa1a4a7a9a;a=bxbHbL,mbFad..........",
".............*.g.s.M.=,r,L,;,;,;,;,;,;,;,;,;,;,;,;,;,;,:,=,+,%**-),),[,]-;-,---*-a-b-c-d-e-f-g-h-J-X-k-la+bybIbL,mbFad..........",
".............*.g.t.M.=,r,L,;,;,;,;,;,;,;,;,;,;,;,;,;,;-p-q-r-s-t-u*b-w-x-y-8-A-B-C-D-E-F-G-H-g-h-i-j*H-la%bybIbL,mbFad..........",
".............*.g.t.N.=,r,L,;,;,;,;,;,;,;,;,;,;,;,;,;,:,=,+,%,$-5-L,[,]-.-O-P-Q-R-S-T-U-V-G-H-W-J-X-j,#-Ya%bybIbL,mbFad..........",
".............*.g.t.N.=,r,M,;,;,;,;,;,;,;,;,;,;,;,;,;-p-q-r-s-t-u*b-w-x-y-z*c*d*paa*y-d-e-f-g-h-J-X-k*j-Ya$bybIbLaTbUad..........",
".............*.g.t.N.+,r,M,;,;,;,;,;,;,;,;,;,;,;,;,:,=,+,%**-5,),[,]-.-O-P-Q-R-C-D-E-F-G-H-g-h-i-j-k-l-9a(bzbIbLaTbUad..........",
".............*.g.t.N.+,r,M,;,;,;,;,;,;,;,;,;,;,;,:,=,+,%,$-#*a*b-w-x-y-z*c*d*p-b-c-d-e-f*2-W-J-X-j,#-Y-9a(bzbI*V*gbUad..........",
".............*.g.u.O.+,r,M,;,;,;,;,;,;,;,;,;,;,:-p-q-r-s-t-),),[,]-.-O-P-Q-B-C-D-E-F-G-f-g-h-i-X-k-l-Y*.a)bzbJ*V*gbUad..........",
".............*.g.u.O.+,s,N,;,;,;,;,;,;,;,;,;,;-p-q-r-s**-5-L-M-N-6-7-z*c*d-a-b-c-d-e-:-H-W-J-i-j,#-l-9*fa[bzbK*#*gbUad..........",
".............*.g.u.O.%,q,N,;,;,;,;,;,;,;,;,;-p-q-r,%,$,(*a*b-w-x-;-,---*-R-C-D-E-F-G-f-g-h-i-X-k,#-Y-=*ma[.l,9*#*gbUad..........",
".............*.g.u.O.$,q,N,;,;,;,;,;,;,;,;-p-q*k,%,$-#-u-v-2,]-.-O-8-A-B-C-b-c-d-e-:-H-W-J-i-j,#-l-9*.*qa].l,9*#*gbUad..........",
".............*.g.v.P.$,q,N,;,;,;,;,;,;,:-p-q*k,%,$-#-),),[-N-6-7-z*c*d-a-b-T-E-F-Gah-g-h-i-X-k,#-Y-9*m*vb..l,9*#*rbUad..........",
".............*.h.v.Q.$,q,N,;,;,;,;,;,:-p-q*k,%,$-#-),),[-N-x-y-z---*-R-C-D-E*l-e-f*2-W-J-i-j,#-l-]*.*R*zb,.l*,*#*rbUad..........",
".............*.h.v.Q.(,q,N,;,;,;,;,:,=-q-r,%,$-#-),)-M-N-x-y-,-P-Q-B-Caa-c-d-e-G-H-g-h-i-X-k,#-Y-9*m*v*Lb,.l*,ad*rbUad..........",
".............*.h.w.R.),q,O,;,;,:-p,=,+-r-s,$,(-),)-M-N-x-;-O-P-A-B*p-b-c-U-F-G-f-g-W-J-X-j,#-l-9*.*q*z*Db-.l*,ad*rbUad..........",
".............*.h.w.R.#,q,P,:-p,=-q,+,%-s**,(-u,),[-N-x-;-O-P-A*d-a-S-D-E-F-e-f*2-W-J-i-j-k-l-Y-=*m*v*B*Ib*.l*,ad*rbUad..........",
".............*.h.w.S.#,q,Q,=-q,+-r,%,$-t-5*a-v,[-N-x-;-,-P-A*d-a-S-D-E-d-e-:-H-I-h-i-X-k,#*e-9*f*q*z*D*MbabA.Ead*rbUad..........",
".............*.h.w.S.[,q,Q,+-r,%-s,$-#-)*a*b,[,]-x-;-,-P-A*d-a-S-D*y-d-e-G-H-g-h-J-X-j,#-l-]*.*m*z*B*I*8bbbB.Eat*rbUad..........",
".............*.h.w.S.],q,R,%-s,$-t-5-u,)*b-2,]-6-y-,-P-A*d-a-S-D*y-d-V-Gah-g-W-J-i-j-k-l-Y-=*m*q*L*I*M*YbcbB.Eat,8bUad..........",
".............*.h.x.S.],q,S,$-t,(-u-L-v,[-w-3-.-7-z-P-A*d-a-S-D*y-d-F-G-f-g-W-J-i-X-k,#-Y-9*f*q*z*D*M*T*3bdbB.Eat,8bUad..........",
".............*.h.x.S,.,q,T,(-u-L-v-M-2,]-x-;-O-z---Q-B-a-S-D*y-d-F-G-f-g-W-h-i-X-k,#-l-]*.*m*z*B*I*8*3*9bebBbLat,8bUad..........",
".............*.h.x.T,.,q,U,)-v-M-2-N-3-.-y-O-8---Q-B-a-b-D-E-d-F-G-f-H-W-h-i-X-j,#-l-Y-=*m*v*L*I*M*Y*+*[bfbBbL,I,8bUad..........",
".............*.h.x.T,.,q,V,[-w-N-3-6-;-O-z-P-A-*-B-C-b-D-E-d-V-G-f-H-W-h-i-X-j,#-l-Y-=*m*q*z*D*M*T*3*9*]bgbBbL,I*UbUad..........",
".............*.h.x.U,,,q,V,]-x-.-y-7-,-8*c-Q-B-a-C-b-c-E-d-V-G-f*2-W-h-i-X-j-k-l-Y-9*f*q*z*B*S*8*3*9*%abbhbB*#,IbRbUad..........",
".............*.h.x.V,-,q,W-.-y-O-z-8---A*d-R*p-S-D-c-E*l-e-G-f*2-W-h-i-X-j-k-l-Y-9*.*q*z*B*I*8*Y*+*%aiajbhbC*#,IbRbUb3..........",
".............*.h.x.V,*,q,W-,-z-P---A-*-B-a-C-b-T*y-d-F-e-G-H-g-W-h-i-X-j-k-l-Y-9*.*R*v*B*I*M*Y*+*[*]abanbibC*#bOa.bVb3..........",
".............*.h.y.W,*,t,X---A-Q-*-B-a-C-b-D-c-E-d-V-[-f-H-g-W-J-i-X-j*H-l-Y-9*.*R*v*L*I*M*T*+*[*]abaraxbibCad*sa.bVb3..........",
".............*.h.y.W,a,u,Y-*-B-R-a-C-b-D-c-E-d-F-e-G-f-H-g-h-J-i-X-j,#-l-Y-9*.*R*v*L*I*M*T*3*9*]abaraxaybjbCad*sa.bW,H..........",
".............*.h.y.X,b,u,Z-a-C-S-b-D-c-E-d*l-e-G-f-H-g-W-h-J-i-X*Q,#-l-Y-9*.*R*v*L*I*M*T*3*9*%aiaranayaDbkbCad*sa.bW,H..........",
".............*.h.y.X,c,v,Z-b-D-T-c-E-d-F-V-[-G-f-H-g-W-h-J-X-j-k,#-l-Y-9*.*R*v*L*I*M*T*3*9*%aiajanasaCaGblbC,H*sa.bW,H..........",
".............*.h.z.Y,c,w,0-c-E-U-d-F-e-[-G-f-H-W-h-J*C*G*u*Q*H*j*e-]-=*f*q*z*B*I*M*T*3*9*%aiajanasaCaIaJbmbCat*sa.bW,H..........",
".............*.i.z.Z,d,x,0-d-F-V-e-G-:-f-H-g-W-h-J-i-X-j-k,#-l-Y-9*.*m*q*z*B*I*M*T*3*9*%aiajanasayaDaGaHbmbCat*P,nbW,H..........",
".............a.j.A.0,e,y,1-e-G-G-f-H-H-g-W-h-J-i-X-j-k*H,#-l-Y-9*.*m*q*z*B*I*M*T*3*9*%aiajanasayaDaGaHaSbnbD,I*P,nbW,H..........",
".............a.j.A.1,f,z,K-f-H-H-g-I-W-h-J-J-i*u-j-k,#-l-Y-9-=*f*R*v*L*B*I*M*T*3*9*%aiajanasayaDaGaHaSaXbobE,I*;-ZbW,H..........",
".............a.j.A.1,g,A,2-g-I-W-h-h-J-i-i-X-j-k,#-l-l-Y-9*.*m*q*z*B*D*S*8*Y*3*9*%aiajanasayaDaGaHaSaXaZbpbE,I*(-ZbW,H..........",
".............a.j.A.2,h,A,3-h-J-J-i-i-X-j-j-k,#-l-l-Y-9*.*m*R*q*z*B*I*M*8*Y*+*[*]abajanasayaDaGaHaSaXaRaZbqbEbMa,-ZbW,H..........",
".............a.j.A.3,i,B,3-i-i-X-X-j-k-k,#-l-l-Y-9*.*f*m*q*z*L*D*I*M*T*3*+*[*]abaranasaCaDaGaHaSaXaRaZaWbqbE*sa,-$bW,H..........",
".............a.j.B.3,j,C,4-j-j-k-k,#,#-l*e-Y-9*.*f*m*q*v*L*B*I*M*8*Y*3*9*%*]abaraxasaCaIaGaHaSaNaRaZaWaYbrbE*sa,-$bX,H..........",
".............a.j.B.4,j,D,5-k,#,#-l-l-Y-]-9*.*f*m*q*v*z*B*I*S*M*T*3*+*[*%aiajaraxayaDaIaGaHaSaXaRaZaWaYa1bsbE*P-n*JbX,H..........",
".............a.j.B.4,k,E,6-l-l-Y-Y-9-=*.*f*m*q*v*z*B*D*I*M*T*Y*3*9*%*]abajanasayaDaGaJaHaSaXaZaZaWaYa1a1bsbE*P-n*JbX,H..........",
".............a.j.B.5,l,F,7-m-m-m-4-4-+-+-+*n*n*w*A*A*E*E*N*N*Z*4*4*$*$acacaoaoazazazaKaOaOaOa0a0a0a0a@a@btbF*P-n*JbX,H..........",
".............a.j.B.5.Z,G,8-n-n-n-n,m,m,m*g*g*r*r*r,8,8,8,8*U*U*U*@*@a.,n,n,n,n,n,n*J*J*J*W*W*Wa2aPaPaPaP*W*P,9,m*JbYat..........",
".............a.j.B.y.D,H,9,9,9,9,9,9,9*,*h*o*o*o.E.E.E.E*O*V*V*V*#*#*#adadapatatat,I,I,I*s*s*s*P*P*Pa#*(a,*PbLbL*JbY,I..........",
".............a.k.C.6,m,I,I,I,I,I,I,I-%-%-%-%*s*s*s*s*s*s*P*P*P*P*;*(a,a,-n-n-n-n-n-n,m,maTaTaT*r*r*r*r*r,8,8*rbM-nbY,I..........",
".............b.l.D.7,n,n,n,n,n-Z-Z-Z-$-$-$-$-$-$-$-$-$*J*J*J*J*J*J*J*J*J*W.G.G.G.G.GaLaPaPaPaPaPa5a5a5a5a5a5a5aPa.-nb4..........",
".............c.m.E.8.8.8.8.8.8.8.8.8.8.8.8.8.8.8.8.8.8.8.8.8.8.8.8.8.8aeaeaeauauauauauauauauauauauauauaububGbGbG.GbZb0..........",
"...............n.F.9.9.9.9.9.9.9.9.9.9.9.9.9.9.9.9.9.9.9.9.9.9.9.9.9.9afafafavavavavavavavavavavavavavavbvbvbvbvbSb0............",
"................................................................................................................................",
"................................................................................................................................",
"................................................................................................................................",
"................................................................................................................................",
"................................................................................................................................"
};
