/* XPM */
static char *graphic[] = {
"64 64 31 1",
". c #000000",
", c #080400",
"- c #140B00",
"* c #160C00",
"a c #110A00",
"b c #020100",
"c c #0B0600",
"d c #231300",
"e c #251500",
"f c #1E1100",
"g c #1A0F00",
"h c #1D1100",
"i c #261600",
"j c #2C1900",
"k c #2E1A00",
"l c #2F1A00",
"m c #564D46",
"n c #746D69",
"o c #574D46",
"p c #A5A19E",
"q c #746E69",
"r c #EEEEEE",
"s c #564C46",
"t c #1B0F00",
"u c #0E0800",
"v c #241400",
"w c #201200",
"x c #0D0800",
"y c #190E00",
"z c #170D00",
"A c #070400",
"...........cghhhhhhhhhhhhhhhhhhhhhhhhhhhhhhhhhhhhhtu............",
"..........,deeeeeeeeeeeeeeeeeeeeeeeeeeeeeeeeeeeeeeevx...........",
"..........-eeeeeeeeeeeeeeeeeeeeeeeeeeeeeeeeeeeeeeeeey...........",
"..........*eeijklllllllllllllllllllllllllllllllkjieet...........",
"..........*eejllllllllllllllllllllllllllllllllllljeet...........",
"..........*eeklmnnnnnnnnnnnnnnnnnnnnnnnnnnnnnnnslkeet...........",
"..........*eellnpppppppppppppppppppppppppppppppnlleet...........",
"..........*eellnpppppppppppppppppppppppppppppppnlleet...........",
"..........*eellnpprrrrrrrrrrrrrrrrrrrrrrrrrrrppnlleet...........",
"..........*eellnpprrrrrrrrrrrrrrrrrrrrrrrrrrrppnlleet...........",
"..........*eellnpprrrrrrrrrrrrrrrrrrrrrrrrrrrppnlleet...........",
"..........*eellnpprrrrrrrrrrrrrrrrrrrrrrrrrrrppnlleet...........",
"..........*eellnpprrrrrrrrrrrrrrrrrrrrrrrrrrrppnlleet...........",
"..........*eellnpprrrrrrrrrrrrrrrrrrrrrrrrrrrppnlleet...........",
"..........*eellnpprrrrrrrrrrrrrrrrrrrrrrrrrrrppnlleet...........",
"..........*eellnpprrrrrrrrrrrrrrrrrrrrrrrrrrrppnlleet...........",
"..........*eellnpprrrrrrrrrrrrrrrrrrrrrrrrrrrppnlleet...........",
"..........*eellnpprrrrrrrrrrrrrrrrrrrrrrrrrrrppnlleet...........",
"..........*eellnpprrrrrrrrrrrrrrrrrrrrrrrrrrrppnlleet...........",
"..........*eellnpprrrrrrrrrrrrrrrrrrrrrrrrrrrppnlleet...........",
"..........*eellnpprrrrrrrrrrrrrrrrrrrrrrrrrrrppnlleet...........",
"..........*eellnpprrrrrrrrrrrrrrrrrrrrrrrrrrrppnlleet...........",
"..........*eellnpprrrrrrrrrrrrrrrrrrrrrrrrrrrppnlleet...........",
"..........*eellnpprrrrrrrrrrrrrrrrrrrrrrrrrrrppnlleet...........",
"..........*eellnpprrrrrrrrrrrrrrrrrrrrrrrrrrrppnlleet...........",
"..........*eellnpprrrrrrrrrrrrrrrrrrrrrrrrrrrppnlleet...........",
"..........*eellnpprrrrrrrrrrrrrrrrrrrrrrrrrrrppnlleet...........",
"..........*eellnpprrrrrrrrrrrrrrrrrrrrrrrrrrrppnlleet...........",
"..........*eellnpprrrrrrrrrrrrrrrrrrrrrrrrrrrppnlleet...........",
"..........*eellnpprrrrrrrrrrrrrrrrrrrrrrrrrrrppnlleet...........",
"..........*eellnpprrrrrrrrrrrrrrrrrrrrrrrrrrrppnlleet...........",
"..........*eellnpprrrrrrrrrrrrrrrrrrrrrrrrrrrppnlleet...........",
"..........*eellnpprrrrrrrrrrrrrrrrrrrrrrrrrrrppnlleet...........",
"..........*eellnpprrrrrrrrrrrrrrrrrrrrrrrrrrrppnlleet...........",
"..........*eellnpprrrrrrrrrrrrrrrrrrrrrrrrrrrppnlleet...........",
"..........*eellnpprrrrrrrrrrrrrrrrrrrrrrrrrrrppnlleet...........",
"..........*eellnpprrrrrrrrrrrrrrrrrrrrrrrrrrrppnlleet...........",
"..........*eellnpprrrrrrrrrrrrrrrrrrrrrrrrrrrppnlleet...........",
"..........*eellnpprrrrrrrrrrrrrrrrrrrrrrrrrrrppnlleet...........",
"..........*eellnpprrrrrrrrrrrrrrrrrrrrrrrrrrrppnlleet...........",
"..........*eellnpprrrrrrrrrrrrrrrrrrrrrrrrrrrppnlleet...........",
"..........*eellnpprrrrrrrrrrrrrrrrrrrrrrrrrrrppnlleet...........",
"..........*eellnpprrrrrrrrrrrrrrrrrrrrrrrrrrrppnlleet...........",
"..........*eellnpprrrrrrrrrrrrrrrrrrrrrrrrrrrppnlleet...........",
"..........*eellnpprrrrrrrrrrrrrrrrrrrrrrrrrrrppnlleet...........",
"..........*eellnpprrrrrrrrrrrrrrrrrrrrrrrrrrrppnlleet...........",
"..........*eellnpprrrrrrrrrrrrrrrrrrrrrrrrrrrppnlleet...........",
"..........*eellnpprrrrrrrrrrrrrrrrrrrrrrrrrrrppnlleet...........",
"..........*eellnpprrrrrrrrrrrrrrrrrrrrrrrrrrrppnlleet...........",
"..........*eellnpprrrrrrrrrrrrrrrrrrrrrrrrrrrppnlleet...........",
"..........*eellnpprrrrrrrrrrrrrrrrrrrrrrrrrrrppnlleet...........",
"..........*eellnpprrrrrrrrrrrrrrrrrrrrrrrrrrrppnlleet...........",
"..........*eellnpprrrrrrrrrrrrrrrrrrrrrrrrrrrppnlleet...........",
"..........*eellnpprrrrrrrrrrrrrrrrrrrrrrrrrrrppnlleet...........",
"..........*eellnpprrrrrrrrrrrrrrrrrrrrrrrrrrrppnlleet...........",
"..........*eellnpprrrrrrrrrrrrrrrrrrrrrrrrrrrppnlleet...........",
"..........*eellnpprrrrrrrrrrrrrrrrrrrrrrrrrrrppnlleet...........",
"..........*eellnpppppppppppppppppppppppppppppppnlleet...........",
"..........*eellnpppppppppppppppppppppppppppppppnlleet...........",
"..........*eekloqqqqqqqqqqqqqqqqqqqqqqqqqqqqqqqolkeet...........",
"..........*eejllllllllllllllllllllllllllllllllllljeet...........",
"..........*eeijklllllllllllllllllllllllllllllllkjieet...........",
"..........aeeeeeeeeeeeeeeeeeeeeeeeeeeeeeeeeeeeeeeeeez...........",
"..........bfeeeeeeeeeeeeeeeeeeeeeeeeeeeeeeeeeeeeeeewA..........."
};
