/* XPM */
static char *graphic[] = {
"64 64 23 1",
". c #000000",
", c #080400",
"- c #140B00",
"* c #160C00",
"a c #110A00",
"b c #020100",
"c c #0B0600",
"d c #231300",
"e c #251500",
"f c #1E1100",
"g c #1A0F00",
"h c #1D1100",
"i c #1B0F00",
"j c #221300",
"k c #120A00",
"l c #211200",
"m c #0E0800",
"n c #241400",
"o c #201200",
"p c #0D0800",
"q c #190E00",
"r c #170D00",
"s c #070400",
"...........cghhhhhhhhhhhhhhhhhhhhhhhhhhhhhhhhhhhhhim............",
"..........,deeeeeeeeeeeeeeeeeeeeeeeeeeeeeeeeeeeeeeenp...........",
"..........-eeeeeeeeeeeeeeeeeeeeeeeeeeeeeeeeeeeeeeeeeq...........",
"..........*eeeeeeeeeeeeeeeeeeeeeeeeeeeeeeeeeeeeeeeeei...........",
"..........*eeeeeeeeeeeeeeeeeeeeeeeeeeeeeeeeeeeeeeeeei...........",
"..........*eeeefkkkkkkkkkkkkkkkkkkkkkkkkkkkkkkkieeeei...........",
"..........*eeeei...............................*eeeei...........",
"..........*eeeei...............................*eeeei...........",
"..........*eeeei...............................*eeeei...........",
"..........*eeeei...............................*eeeei...........",
"..........*eeeei...............................*eeeei...........",
"..........*eeeei...............................*eeeei...........",
"..........*eeeei...............................*eeeei...........",
"..........*eeeei...............................*eeeei...........",
"..........*eeeei...............................*eeeei...........",
"..........*eeeei...............................*eeeei...........",
"..........*eeeei...............................*eeeei...........",
"..........*eeeei...............................*eeeei...........",
"..........*eeeei...............................*eeeei...........",
"..........*eeeei...............................*eeeei...........",
"..........*eeeei...............................*eeeei...........",
"..........*eeeei...............................*eeeei...........",
"..........*eeeei...............................*eeeei...........",
"..........*eeeei...............................*eeeei...........",
"..........*eeeei...............................*eeeei...........",
"..........*eeeei...............................*eeeei...........",
"..........*eeeei...............................*eeeei...........",
"..........*eeeei...............................*eeeei...........",
"..........*eeeei...............................*eeeei...........",
"..........*eeeei...............................*eeeei...........",
"..........*eeeei...............................*eeeei...........",
"..........*eeeei...............................*eeeei...........",
"..........*eeeei...............................*eeeei...........",
"..........*eeeei...............................*eeeei...........",
"..........*eeeei...............................*eeeei...........",
"..........*eeeei...............................*eeeei...........",
"..........*eeeei...............................*eeeei...........",
"..........*eeeei...............................*eeeei...........",
"..........*eeeei...............................*eeeei...........",
"..........*eeeei...............................*eeeei...........",
"..........*eeeei...............................*eeeei...........",
"..........*eeeei...............................*eeeei...........",
"..........*eeeei...............................*eeeei...........",
"..........*eeeei...............................*eeeei...........",
"..........*eeeei...............................*eeeei...........",
"..........*eeeei...............................*eeeei...........",
"..........*eeeei...............................*eeeei...........",
"..........*eeeei...............................*eeeei...........",
"..........*eeeei...............................*eeeei...........",
"..........*eeeei...............................*eeeei...........",
"..........*eeeei...............................*eeeei...........",
"..........*eeeei...............................*eeeei...........",
"..........*eeeei...............................*eeeei...........",
"..........*eeeei...............................*eeeei...........",
"..........*eeeei...............................*eeeei...........",
"..........*eeeei...............................*eeeei...........",
"..........*eeeei...............................*eeeei...........",
"..........*eeeei...............................*eeeei...........",
"..........*eeeei...............................*eeeei...........",
"..........*eeeejhhhhhhhhhhhhhhhhhhhhhhhhhhhhhhhleeeei...........",
"..........*eeeeeeeeeeeeeeeeeeeeeeeeeeeeeeeeeeeeeeeeei...........",
"..........*eeeeeeeeeeeeeeeeeeeeeeeeeeeeeeeeeeeeeeeeei...........",
"..........aeeeeeeeeeeeeeeeeeeeeeeeeeeeeeeeeeeeeeeeeer...........",
"..........bfeeeeeeeeeeeeeeeeeeeeeeeeeeeeeeeeeeeeeeeos..........."
};
