/* XPM */
static char *graphic[] = {
"64 64 394 2",
".. c #373045",
"., c #2F2E2F",
".- c #2D2D2D",
".* c #3F3545",
".a c #574065",
".b c #564064",
".c c #574165",
".d c #4E3C5D",
".e c #39314B",
".f c #39314C",
".g c #342F3C",
".h c #2F2E2E",
".i c #4B3B56",
".j c #574164",
".k c #48365E",
".l c #3C2F56",
".m c #34303E",
".n c #2E2E2E",
".o c #333035",
".p c #533F60",
".q c #574064",
".r c #4B385F",
".s c #3D2F5A",
".t c #3E2F5A",
".u c #3E2F5B",
".v c #3B3052",
".w c #2F2E30",
".x c #3C3441",
".y c #4A3B54",
".z c #564065",
".A c #564064",
".B c #4E3C5D",
".C c #443754",
".D c #39314B",
".E c #363044",
".F c #332F39",
".G c #4B3B55",
".H c #574065",
".I c #553F64",
".J c #4C3960",
".K c #43335C",
".L c #39314B",
".M c #34303E",
".N c #2F2E2E",
".O c #3B3440",
".P c #423748",
".Q c #413648",
".R c #423748",
".S c #3A3341",
".T c #332F3C",
".U c #342F3C",
".V c #302E32",
".W c #333035",
".X c #533F60",
".Y c #3C3054",
".Z c #3A314F",
".0 c #2F2E30",
".1 c #4A3B54",
".2 c #564065",
".3 c #302E30",
".4 c #4E3C59",
".5 c #574166",
".6 c #533E63",
".7 c #423554",
".8 c #38304C",
".9 c #373147",
".@ c #513C62",
".# c #40305B",
".; c #3D3056",
".: c #302E2F",
".= c #343036",
".+ c #4C3B56",
".% c #584166",
".$ c #543F63",
".( c #453755",
".) c #322F39",
".[ c #4C3960",
".] c #40315B",
",. c #3E2F59",
",, c #3D2F57",
",- c #302E30",
",* c #4D3C58",
",a c #41315B",
",b c #3E2F5A",
",c c #3C3055",
",d c #373046",
",e c #2F2E30",
",f c #4E3A61",
",g c #3F2F5A",
",h c #3E2F5A",
",i c #342F3D",
",j c #523E5F",
",k c #554063",
",l c #564064",
",m c #543F63",
",n c #3E344F",
",o c #34303E",
",p c #333034",
",q c #533F61",
",r c #513D62",
",s c #3F305A",
",t c #41315B",
",u c #312F36",
",v c #302E30",
",w c #574065",
",x c #3C3055",
",y c #39314B",
",z c #2F2E30",
",A c #543E64",
",B c #4D3960",
",C c #342F3D",
",D c #343136",
",E c #543F61",
",F c #503C62",
",G c #45345C",
",H c #3E3056",
",I c #3A304F",
",J c #39314A",
",K c #35303F",
",L c #302F30",
",M c #3A333F",
",N c #503B62",
",O c #413456",
",P c #3A304E",
",Q c #353041",
",R c #47355E",
",S c #3A314E",
",T c #45345D",
",U c #3F305B",
",V c #2E2D2D",
",W c #493A53",
",X c #4A3B53",
",Y c #3C3347",
",Z c #363042",
",0 c #322F37",
",1 c #46355D",
",2 c #3B3052",
",3 c #373146",
",4 c #543F61",
",5 c #543E63",
",6 c #35303F",
",7 c #2F2E2F",
",8 c #312F31",
",9 c #302E31",
",@ c #553F64",
",# c #543E63",
",; c #43325C",
",: c #3A304F",
",= c #342F3D",
",+ c #543F61",
",% c #4F3B61",
",$ c #35303F",
",( c #513E5D",
",) c #40354E",
",[ c #383147",
",] c #383148",
"-. c #332F3A",
"-, c #302E30",
"-- c #533E63",
"-* c #40305B",
"-a c #3A314D",
"-b c #574166",
"-c c #40305B",
"-d c #3C2F56",
"-e c #3B3051",
"-f c #342F3E",
"-g c #574164",
"-h c #3D3056",
"-i c #3B3050",
"-j c #312F32",
"-k c #423749",
"-l c #4A385F",
"-m c #403257",
"-n c #373044",
"-o c #46384E",
"-p c #523E5F",
"-q c #3D2F56",
"-r c #3D2F58",
"-s c #34303F",
"-t c #4E3B61",
"-u c #3A314E",
"-v c #3D3056",
"-w c #3E3544",
"-x c #47365E",
"-y c #39314A",
"-z c #312F35",
"-A c #2F2E2E",
"-B c #353137",
"-C c #3E2F59",
"-D c #333034",
"-E c #4F3B62",
"-F c #3C3053",
"-G c #FFFFFF",
"-H c #323034",
"-I c #38323B",
"-J c #35303A",
"-K c #322E38",
"-L c #3D2E5A",
"-M c #44335C",
"-N c #503C62",
"-O c #46345D",
"-P c #3C3054",
"-Q c #3B3051",
"-R c #1C2B2D",
"-S c #3E3543",
"-T c #383141",
"-U c #342E3E",
"-V c #332F39",
"-W c #44335C",
"-X c #3E2F59",
"-Y c #3D2F56",
"-Z c #533F60",
"-0 c #47365E",
"-1 c #3F2F5A",
"-2 c #343136",
"-3 c #3E3543",
"-4 c #574165",
"-5 c #42325C",
"-6 c #E6D5B8",
"-7 c #403647",
"-8 c #47355F",
"-9 c #3C2F57",
"-@ c #46355D",
"-# c #554064",
"-; c #493A52",
"-: c #553F62",
"-= c #3F305B",
"-+ c #47355E",
"-% c #513C62",
"-$ c #1F6F8B",
"-( c #523D62",
"-) c #3B3050",
"-[ c #44345D",
"-] c #4E3A61",
"*. c #99A8B2",
"*, c #553F63",
"*- c #4A385F",
"** c #533F61",
"*a c #413647",
"*b c #343036",
"*c c #3D2F57",
"*d c #41315C",
"*e c #47355E",
"*f c #40315B",
"*g c #38304A",
"*h c #4C3B5B",
"*i c #413552",
"*j c #4C3B5A",
"*k c #383148",
"*l c #363043",
"*m c #322F33",
"*n c #322F33",
"*o c #312F33",
"*p c #302E31",
"*q c #47394F",
"*r c #42374B",
"*s c #353040",
"*t c #533E62",
"*u c #4A3A5A",
"*v c #453755",
"*w c #38314B",
"*x c #3D3152",
"*y c #523D63",
"*z c #49375F",
"*A c #3F2F5A",
"*B c #3C2F55",
"*C c #43335C",
"*D c #564065",
"*E c #574166",
"*F c #39304E",
"*G c #43374A",
"*H c #4F3D5B",
"*I c #4A3A59",
"*J c #3F3450",
"*K c #373147",
"*L c #3B3050",
"*M c #3F3544",
"*N c #553F62",
"*O c #38314A",
"*P c #342F3C",
"*Q c #2F2E2F",
"*R c #4B3860",
"*S c #312F32",
"*T c #343035",
"*U c #2F2E2F",
"*V c #37323A",
"*W c #44384B",
"*X c #44374B",
"*Y c #44384B",
"*Z c #3F3547",
"*0 c #312F36",
"*1 c #3B3052",
"*2 c #3B343F",
"*3 c #413647",
"*4 c #332F3B",
"*5 c #332F3B",
"*6 c #37323A",
"*7 c #44384B",
"*8 c #44374B",
"*9 c #44384C",
"*@ c #353040",
"*# c #302E33",
"*; c #46355E",
"*: c #363138",
"*= c #333036",
"*+ c #312E34",
"*% c #312F34",
"*$ c #4C3B57",
"*( c #443754",
"*) c #493A52",
"*[ c #554063",
"*] c #453755",
"a. c #38314A",
"a, c #3F3159",
"a- c #3B3053",
"a* c #342F3E",
"aa c #433654",
"ab c #3C334E",
"ac c #4D3A60",
"ad c #3F305A",
"ae c #513C63",
"af c #553F62",
"ag c #4B395F",
"ah c #3D3153",
"ai c #39304D",
"aj c #45384D",
"ak c #543F64",
"al c #48365F",
"am c #403258",
"an c #39314C",
"ao c #3C3053",
"ap c #533E5F",
"aq c #533F5F",
"ar c #403550",
"as c #373048",
"at c #383149",
"au c #553F63",
"av c #3B3052",
"aw c #302F32",
"ax c #49375E",
"ay c #3A314E",
"az c #3C3054",
"aA c #513D62",
"aB c #2E2E2E",
"aC c #46394F",
"aD c #47394F",
"aE c #3B3344",
"aF c #322F36",
"aG c #49375E",
"aH c #513C63",
"aI c #423456",
"aJ c #342F3D",
"aK c #4E3A60",
"aL c #574066",
"aM c #533E64",
"aN c #46355F",
"aO c #353136",
"aP c #49375F",
"aQ c #42325B",
"aR c #3F305A",
"aS c #3D3056",
"aT c #363139",
"aU c #3C3248",
"aV c #362F43",
"aW c #34303D",
"aX c #2E2E2E",
"aY c #45345D",
"aZ c #3D2E5A",
"a0 c #3A314F",
"a1 c #523D63",
"a2 c #322F35",
"a3 c #2E2D2E",
"a4 c #3D3442",
"a5 c #543F62",
"a6 c #47355C",
"a7 c #3B2F54",
"a8 c #383149",
"a9 c #2E2E2E",
"a@ c #4D3A60",
"a# c #423749",
"a; c #4F3D5A",
"a: c #322F38",
"a= c #342F3E",
"a+ c #4E3B61",
"a% c #513D61",
"a$ c #3C324F",
"a( c #3D2F58",
"a) c #4B385F",
"a[ c #43325C",
"a] c #403646",
"b. c #4B3A5A",
"b, c #403551",
"b- c #312F36",
"b* c #463856",
"........,u.h.,.h-.,d..................................,Q.,.,.,.0*l............................,d.g.h.,.h*%......................",
".,.w.3,-,v,z,e.0-,.3-,.3,-,v,v,-.3-,.3-,.3,e,z,z,e.3-,.3.w.0,e,z,v,-.3-,.3-,.3,-,v,v,e.0*U.0-,.3,-,z,z,e.3-,.3-,.3,-,v,v,-.3-,.3",
".-.x.4,*,*,*,*,*,*,*,*,*,*,*,*,*,*,*,*,*-;.3.,.,.3-;,*,*,*,*,*,*,*,*,*,*,*,*,*,*.4*G,V.,.n.=*$,*,*,*,*,*,*,*,*,*,*,*,*,*,*,*,*,*",
".*.y.5.H,w,w.H.a.H.a.H-E-N-4,w.H.a.H.a.H***a*b-G-G-G-G-G-G-G-G-G-G-G.c.H.c*y-]*D*E*H*M*S*V*9.A.a.H,w,w.H.a.H.c*y-]*D,w,w.H.a.H.a",
".a.z.b.6.6.$.b,#--.6--,;-O.$.b.b-#--.6*,.b-G-G-R-R-R-R-R-R-R-R-R-R-R-G-G.$*z.#-(,@.b-:*T*W.%,l.$.6,#.b.$.6--,#*z.#-(,@.b.b,#--.6",
".b.A.6,a,s,R.I,;-*.#-*.t,g-5.$-g,F-*,s*--G-R-R-6-6-6-6-6-6-6-6-6-6-6-R-R-G*A.t-=,%.q,E*T*X.a.A-Oad-5auax,s-*.#aR.t-=,%.j.I,;-*.#",
".c.B.7,b.t,t,1,s,h.t,h-F-P-1-@-+-[,h.t-G-R-6-6-6-6-6-6-6-6-6-6-6-6-6-6-6-R-G.t,b,O*I*N*T*Y.$*(a,,b,s-@,a.t,h.taS-e-X-M,R,1,s,h.t",
".d.C.8,c,..t.s.t,b,.-v-a-i.t.s.s.t,b-G-R-6-6-6-6-6-6-6-6-6-6-6-6-6-6-6-6-6-R-G.;*F*J*j,p*Z*u,ya--r.t.s.t.t,b,,*L-a,..t.s.s.ta(,c",
".e.D.e.D,x,b,h,.,h,,.D.e-Q,b-X,h.t-G-R-6-6-6-6-6-6-6-6-6-6-6-6-6-6-6-6-6-6-6-R-G,y,y*O.V,o.f.D.e-Q,b,b,h,.-C-u.D-a-C-X,b,h.t,2.e",
".f.e.e.e.f.v.t,:-a-a.e.e.f-G-G-G-G-R-6-6-6-6-6-6-6-6-6-6-6-6-6-6-6-6-6-6-6-6-6-R-G.e,J.V.m.f.e.e.f.Z,.-F-a-a.e.e.e-a-a.v.t,:.f.e",
".g.E.f.D,y,S,2.f.L.e.L.e-G-R-R-R-G-R-6-6-6-6-6-6-6-6-6-6-6-6-6-6-6-6-6-6-6-6-6-R-G*K*P,9*0*@.L.e.Danavay.e.L.e.L.e.D,y,S,2.f.L.e",
".h.F.9,d,d,d,3,d,d,d,d-G-R-6-6-6-R-6-6-6-6-6-6-6-6-6-6-6-6-6-6-6-6-6-6-6-6-6-6-6-R-G.h.,.h*#..,d,d,d,3,d,d,d,d,d,d,d,d,d,3,d,d,d",
".,.w.0,e,z,z,e.0.w.0.w-G-R-6-6-6-6-R-6-6-6-6-6-6-6-6-6-6-6-6-6-6-6-6-6-6-6-6-6-6-R-G*Q.,*U.,.w.0,e,z,z,e.0.w.0.w.0,e,z,z,e.0.w.0",
".i.G.i.+.+.G.G.G.+-o.,.,-G-R-6-6-6-6-R-6-6-6-6-6-6-6-6-6-6-6-6-6-6-6-6-6-6-6-6-6-R-G.+.i.G.i.G.+.+.G.G.G.G.G*T.n.,a3a#.+.G.G.G.G",
".a.H.2,f,A.c,w.a-b-p-w-H-G-R-6-6-6-6-6-R-6-6-6-6-6-6-6-6-6-6-6-6-6-6-6-6-6-6-6-6-6-R-G.2.H.a.H,Nae.c.a,w.a.A*GaT,8a4a;.5,w.a.H.a",
".b.I.@,g,B.$,m.$,m.$,l-I-G-R-6-6-6-6-6-R-6-6-6-6-6-6-6-6-6-R-R-R-R-6-6-6-6-6-R-R-R-R-G.@.I.b,m,;,1.$.$,m.$,maL*W*Ta5,@.$,m.b.I.$",
".j.J.#.t.#.].].]-c,T,l-I-S-G-R-6-6-6-6-6-R-6-6-6-6-6-6-6-6-R-R-R-R-6-6-6-6-6-R-R-R-R-R-G.J.6,a-1,s.].].].],aaM*W*T,+.k.#,t,#a).#",
".k.K.t,h,b,b,h.v-d.#-x-J-T-G-R-6-6-6-6-6-R-6-6-6-6-6-6-6-R-R*.-R-R-R-6-6-6-R-R*.-R-R-R-G.K*;,h.t,h,b,baz-F,haNaUa2a6*d,b,h,Ra[.t",
".l.l.;.;.;.;.;.f-e-q.l-K-U-G-R-6-6-6-6-6-6-R-6-6-6-6-6-6-R-R-R-R-R-R-6-6-6-R-R-R-R-R-R-G-r.l-q.;.;.;-q,:-a.;,,aV*+a7-q.;-q.l.l.;",
".e.L.e.D,y,y.D.e.L.e-y-z-V,y-G-R-6-6-6-6-6-6-6-6-6-6-6-6-R-R-R-R-R-R-6-6-6-R-R-R-R-R-R-G*1.e.L.e.D,y,y.D.e.L.eaW.Va8,y,y.D.e.L.e",
".f.f.f.f.f.f.f.f.f,[-z.0,9,0-G-R-R-6-6-6-6-6-6-6-6-6-6-6-6-R-R-R-R*.-6-6-6-6-R-R-R-R-R-G-a.f.f.f.f.f.f.f.f.e.F.V.0*%-n.f.f.f.f.f",
".m.M.m,i,C,C,i,=-f-.-A.h.N,7-G-R-6-R-R-6-6-6-6-6-6-6-6-6-6-R-R-R-R*.-6-6-6-6-R-R-R-R-G.m.M.m.Ma*,i,C,C,i,=aJ,9aX.ha9a:a=,i,=.M.m",
".h.h.:.=,D,D,D,D,D,D-B-B-B-B,D-G-R*.*.-6-6-6-6-6-6-6-6-6-6-6*.*.*.-6-6-6-6-6-6*.*.-R-G.:.h.h.h,p,D,D,D,D,D,DaO-B-B-B,D,D,D,D*S.h",
".,.N.=,j,E,E,4,+,4,+,4,+,4,E,E-G-R-6-6-6-6-6-6-6-6-6-6-6-6-6-6-6-6-6-6-6-6-6-6-6-6-R-G.=.N.,*Q.1af,E,E,4,+,4,+,4,+,4,E,E,4-:a],V",
".n.O.+,k.b.b.b.q-g.6,1,T.[.j.b-G-R-6-6-6-6-6-6-6-6-6-6-6-6-6-6-6-6-6-6-6-6-6-6-6-6-R-G.+*2*T*).p.b.q.b.b.q,laPaY.k.b.b.b.q.b*H,W",
".n.P.%,l,F,F,l,%,f.r,b-L-W,%-#-%-G-R-6-6-6-6-6-6-6-6-6-6-6-6-6-6-6-6-6-6-6-6-6-6-R-G,l.%*3*:,l.b--,%-#aA-]aK,taZ.#a@,#,#a+,@,w.a",
".n.Q.a,m,G,T,5,t,h.t-C,.-X.#-G-G-G-R-6-6-6-6-6-6-6-6-6-6-6-6-6-6-6-6-6-6-6-6-6-6-R-G-G-G-G*:*[,kag.#.6-+-L,h,.-C,.,b-]-]ada%*[.b",
".n.R.$,n,H,U,t.t.t-r-a.f.v-G-R-R-R-R-R-R-R-R-R-R-R-R-R-R-6-6-6-6-R-R-R-R-R-R-6-6-R-R-R-R-G*:,kaaah.u,t,s.t.t-i.f-u,..].#.ta$b..c",
".n.S.(.D,I,x,h.t-h-i.L-e-Y-G-R-$-$-$-$-$-$-$-$-$-$-$-$-R-6-6-6-6-6-R-6-6-R-6-6-R-R-R-R-R-G*=*]abaiao-X,h-r*1.fa0,c,h,b*c-Q.fb,b*",
".h.T.e.e,J.Z,,,,-i,J.e.Y,,-G-R-$-$-$-$-$-$-$-$-$-$-$-$-R-6-6-6-6-6-6-6-6-6-6-R-R-R-R-R-G*4*+a..e.e.f.;,,.Y.e.e-e,,,,,,-F.e.e.ea.",
".h.U.e.D,y,y.D.e.L.e.L.e.D,y-G-R-$-$-$-$-$-$-$-$-$-$-$-R-6-6-6-6-6-6-6-6-6-R-R-R-R-G-G.e*5*%-y.e.D,y,y.D.e.L.e.L.e.D,y,y.D.e.L.e",
".,.V.).e.f.f.f.f.f.f.f.f.f.f-G-R-$-$-$-$-$-$-$-$-$-$-R-6-6-6-6-6-6-6-6-6-R-R-R-R-R-G.e.).V.0,u,d.f.f.f.f.f.f.f.f.f.f.f.f.f.f*@-z",
".,.N.0,o,K,K,6,$,6-s,6,$,6,K,K-G-R-$-$-$-$-$-$-$-$-$-R-6-6-6-6-6-6-6-6-R-R-R-R-R-G,K,o.0.N.,.N*4,6,K,K,6,$,6,$,6,$,6,K,K,6,$b-.n",
".o.W.o,p,L.h.,.h-j.o-D,p,p,p,p-G-R-$-$-$-$-$-$-$-$-$-R-R-R-R-R-R-R-R-R-R-R-R-R-R-G,p,p.o.W.o.W.o*S.h.,.h.3-D,p-D,p,p,p,p,p,p.W.o",
".p.X.p,q,M,V,7,V-k,+.X.p-Z.p.p-G-R-$-$-$-$-$-$-$-$-$-R-R-R-R-R-R-R-R-R-R-R-R-$-R-G.p-Z.p.X.p.X,+aj.n.,aB-I.X.p.X.p-Z.p.p-Z.p.X.p",
".q.q.q.b.a,W,8,(.b.b.b-M-0.j.q.b-G-R-$-$-$-$-$-$-$-$-$-R-R-R-R-R-R-R-R-R-R-$-$-R-G.j.q.b.b.q.q.b.b-p*maC.a.b.j.r,t-#.q.b.b.q.q.q",
".r.r.[.b.a,W,8,(.a.$.r,t,;.r.r-(-G-R-$-$-$-$-$-$-$-$-$-$-R-R-R-R-R-R-R-R-$-$-$-R-G.r*R,@,F-l.r.6.q-p*maC.a.bac,T,U-l.r,%.b.[.r.r",
".s.s.],r.2,W,8,(,@-t.t.t.t.s-L.r-]-G-R-R-R-R-$-$-$-$-$-$-R-R-R-R-R-R-R-$-$-$-$-R-R-G-1,F-0-L.tacakap*maD.2-(aQ.s.t.t-L-[-(.].s.s",
".t.t.t,s,N,X,8,(-l.t.t.t.t.t.t,s,s-G-R-$-$-$-R-$-$-$-$-$-$-R-R-R-R-R-$-$-$-$-$-R-$-R-G,s-1.t.t.talaq*maDaH,U.t.t.t.t.t.t,s.t.t.t",
".t.t.t.t,O,Y,9,)-m.t.t.t.t.t.t.t-r-G-R-$-$-$-R-$-$-$-$-$-$-$-R-R-R-$-$-$-$-$-$-R-$-R-G.t.t.t.t.tamarawaEaI.t.t.t.t.t.t.t.t-e,:,:",
".t.t,.,c,P,Q.0,d-i.;.t.t.t.t.t,,-G-R-$-$-$-$-$-R-$-$-$-$-$-$-$-R-$-$-$-$-$-$-$-R-$-$-R-G.t.t.t,,-eas,9,$,P,c,..t.t.t.t-r.Y.f-a-i",
".t.t,,.f.f,Z.0,[.e-u,..t.t,.,.-i-G-R-$-$-$-$-$-R-$-$-$-$-$-$-$-$-$-$-$-$-$-$-$-R-$-$-R-G.t.t,..Z.e,],9*@.f.e-q.t.t,.,..Y.e.e-F.t",
".u.Y.f.e.f,Z.0,].e.e-a,,,c-a-a.f-G-R-$-$-$-$-$-R-$-$-$-$-$-$-$-$-$-$-$-$-$-$-$-R-$-$-R-G.Y-r-a.e.eat,9*@.f.e.f-F,.-u-a.f.e.e.f-a",
".v.Z.e.f,Q,0.0.F-n.f.e-e-i.e.e.e-G-R-$-$-$-$-$-R-$-$-$-$-$-$-$-$-$-$-$-$-$-$-$-R-$-$-R-G.Z-e.e.f..-..0aF*@.e.e.Z-e.f.e.e.e.e.e.e",
"........,u.h.,.h-.,d............-G-R-$-$-$-$-$-R-$-$-$-$-$-$-$-$-$-$-$-$-$-$-$-R-$-$-R-G......,d.g.h.,.h*%......................",
".,.0.3.3.3.0.0.0.3.3.3.3.3.3.3.3-G-R-$-$-$-$-$-R-$-$-$-$-$-$-$-$-$-$-$-$-$-$-$-R-$-$-R-G.,.0.3.3.3.0.0.0.3.3.3.3.3.3.3.3.3.3.3.3",
".-.x.4,*,*,*,*,*,*,*,*,*,*,*,*,*-G-R-6-6-6-6-6-R-$-$-$-$-$-$-$-$-$-$-$-$-$-$-$-R-6-6-R-G.n.=*$,*,*,*,*,*,*,*,*,*,*,*,*,*,*,*,*,*",
".*.1.5.a.a.a.a.a.a.a.a-E,F.c.a.a.a-G-R-6-6-6-R-$-$-$-$-$-$-$-$-$-$-$-$-$-$-$-$-R-6-R-G*S*6*9.b.a.a.a.a.a.a.a.ca1-].2.a.a.a.a.a.a",
".a.2.b.6.6.$.b,#.6.6.6,;-O.$.b.b-#-G-R-6-6-6-R-$-$-$-$-$-$-$-$-$-$-$-$-$-$-$-$-R-6-R-G*T*7.%.b.$.6,#.b.$.6.6,#aP.#-(,@.b.b,#.6.6",
".b.b.6,t,s,R,@,;.#.#.#.t-1-5.$.j,F.#-G-R-R-R-$-$-$-$-$-$-$-$-$-$-$-$-$-$-$-$-$-R-R-G,+*T*8.a.b-O,s-5auaG,s.#.#,s.t,U,%.j,@,;.#.#",
".c.B.7,b.t,t,1,s,h.t,h-F-P-1-@-+-[,h-G-R-$-$-$-$-$-$-$-$-$-$-$-$-$-$-$-$-$-$-$-R-G*I*N*T*Y.$*(a,,b,s-@,a.t,h.taS-e-X-M,R,1,s,h.t",
".d.C.8,c,..t.s.t,b,.-v-a-i.t.s.s.t,b-G-R-$-$-$-$-$-$-$-$-$-R-$-$-$-$-$-$-$-$-$-R-G*J*j,p*Z*u,ya--r.t.s.t.t,b,,*L-a,..t.s.s.ta(,c",
".e.D.e.D,x,b,h,.,h,,.D.e-Q,b-X,h.t-C-G-R-$-$-$-$-$-$-$-$-R-G-R-$-$-$-$-$-$-$-$-R-G,y*O.V,o.f.D.e-Q,b,b,h,.-C-u.D-a-C-X,b,h.t,2.e",
".f.e.e.e.f.v.t,:-a-a.e.e.f-a-a,c,,-a-G-R-$-$-$-$-$-$-$-R-G.f-G-R-$-$-$-$-$-$-$-R-G.e,J.V.m.f.e.e.f.Z,.-F-a-a.e.e.e-a-a.v.t,:.f.e",
".g.E.f.D,y,S,2.f.L.e.L.e.D,y,y-)-e.L-G-R-$-$-$-$-$-$-$-R-G.e-G-R-$-$-$-$-$-$-$-R-G*K*P,9*0*@.L.e.Danavay.e.L.e.L.e.D,y,S,2.f.L.e",
".h.F.9,d,d,d,3,d,d,d,d,d,d,d,d,d,3,d-G-R-$-$-$-$-$-$-$-R-G,d-G-R-$-$-$-$-$-$-$-R-G.m.h.,.h*#..,d,d,d,3,d,d,d,d,d,d,d,d,d,3,d,d,d",
".,.w.0,e,z,z,e.0.w.0.w.0,e,z,z,e.0.w-G-R-$-$-$-$-$-$-$-R-G.0-G-R-$-$-$-$-$-$-$-R-G,z*Q.,*U.,.w.0,e,z,z,e.0.w.0.w.0,e,z,z,e.0.w.0",
".i.G.i.+.+.G.G.G.+-o.,.,.h,8-;.i.G.G-G-R-$-$-$-$-$*.*.-R-G.+-G-R-$-$-$-$-$*.*.-R-G.+.+.i.G.i.G.+.+.G.G.G.G.G*T.n.,a3a#.+.G.G.G.G",
".a.H.2,f,A.c,w.a-b-p-w-H-2-7-:,w.a.H-G-R-R*.*.*.*.*.-R-R-G.5-G-R-R*.*.*.*.*.-R-R-G,A,f.2.H.a.H,Nae.c.a,w.a.A*GaT,8a4a;.5,w.a.H.a",
".b.I.@,g,B.$,m.$,m.$,l-I-3.a.$,m.$,l.$-G-G-R-R-R-R-R-G-G,m-#.z-G-G-R-R-R-R-R-G-G,@,B,g.@.I.b,m,;,1.$.$,m.$,maL*W*Ta5,@.$,m.b.I.$",
".j.J.#.t.#.].].]-c,T,l-I-S,@-5.#-@,l,T-c.#-G-G-G-G-G*f.],a.@.c-p*m-G-G-G-G-G*C-#.k,s.t.#.J.6,a-1,s.].].].],aaM*W*T,+.k.#,t,#a).#",
".k.K.t,h,b,b,h.v-d.#-x-J-T-8-=,h.]-x.#,h,.-Q*c*d*e,U,h-r-Q.7*h-Z*n*q*t*v*x*B,U*e*d,b,h.t.K*;,h.t,h,b,baz-F,haNaUa2a6*d,b,h,Ra[.t",
".l.l.;.;.;.;.;.f-e-q.l-K-U-9-q.;-q.l-q-q,c.e.v-q.l-q-q.Y.e*g*i*j*o*r*u*w,J-i-q.l-q,,.t.t-r.l-q.;.;.;-q,:-a.;,,aV*+a7-q.;-q.l.l.;",
".e.L.e.D,y,y.D.e.L.e-y-z-V,y,y.D.e.L.e.L.e.D,y,y.D.e.L.e.L.e.D*k*p*s.e.L.e.L.e.D,y*L,h.t*1.e.L.e.D,y,y.D.e.L.eaW.Va8,y,y.D.e.L.e"
};
