/* XPM */
static char *graphic[] = {
"64 64 341 2",
".. c #000000",
"., c #040200",
".- c #0D0700",
".* c #120A00",
".a c #160C00",
".b c #180D00",
".c c #180E00",
".d c #160D00",
".e c #140B00",
".f c #0F0900",
".g c #070400",
".h c #020100",
".i c #100900",
".j c #190E00",
".k c #201200",
".l c #241400",
".m c #251500",
".n c #211300",
".o c #1C1000",
".p c #130B00",
".q c #060300",
".r c #0A0600",
".s c #221300",
".t c #1B0F00",
".u c #281A0D",
".v c #504843",
".w c #736C69",
".x c #8B8682",
".y c #9B9693",
".z c #A7A29F",
".A c #ADA8A6",
".B c #B0ABA8",
".C c #AFAAA8",
".D c #A9A4A2",
".E c #9F9B98",
".F c #918C89",
".G c #7C7673",
".H c #5E5752",
".I c #32261D",
".J c #1F1200",
".K c #110900",
".L c #534B46",
".M c #86817D",
".N c #A8A3A0",
".O c #B0ACA9",
".P c #AEA9A6",
".Q c #938E8A",
".R c #66605B",
".S c #2C1F15",
".T c #1E1100",
".U c #0B0600",
".V c #0D0800",
".W c #211200",
".X c #261607",
".Y c #615A55",
".Z c #BAB6B4",
".0 c #C8C5C3",
".1 c #D2CFCE",
".2 c #D8D6D5",
".3 c #DAD8D7",
".4 c #D9D7D6",
".5 c #D4D2D1",
".6 c #CCC9C7",
".7 c #BFBCB9",
".8 c #B2AEAB",
".9 c #77716D",
".@ c #150C00",
".# c #4D443F",
".; c #999491",
".: c #B3AFAC",
".= c #CAC7C6",
".+ c #E3E2E1",
".% c #F7F6F6",
".$ c #FFFFFF",
".( c #FCFCFB",
".) c #EAE9E9",
".[ c #D4D1D0",
".] c #B8B4B1",
",. c #A7A2A0",
",, c #6A635F",
",- c #050300",
",* c #291B0F",
",a c #7B7571",
",b c #B7B3B1",
",c c #F8F8F8",
",d c #FDFDFD",
",e c #E6E4E4",
",f c #C1BEBC",
",g c #95908D",
",h c #3E342D",
",i c #080400",
",j c #1A0F00",
",k c #392E27",
",l c #97928F",
",m c #FBFBFB",
",n c #FEFEFE",
",o c #E6E5E4",
",p c #BAB7B4",
",q c #57504B",
",r c #090500",
",s c #443A34",
",t c #A39E9B",
",u c #C1BDBB",
",v c #F2F2F1",
",w c #AEAAA7",
",x c #67605C",
",y c #443B35",
",z c #A6A19E",
",A c #D0CDCC",
",B c #E5E3E2",
",C c #B4AFAD",
",D c #69635F",
",E c #0E0800",
",F c #3B3029",
",G c #A39F9C",
",H c #EEEDEC",
",I c #B6B2AF",
",J c #605955",
",K c #2B1E13",
",L c #EFEFEE",
",M c #B5B1AE",
",N c #ACA7A4",
",O c #4B423D",
",P c #241500",
",Q c #807A77",
",R c #F3F3F2",
",S c #B2ADAA",
",T c #A19C99",
",U c #2F2319",
",V c #544D48",
",W c #C3C0BE",
",X c #CAC7C5",
",Y c #847B76",
",Z c #817972",
",0 c #A09A96",
",1 c #F1F0EF",
",2 c #DCDAD9",
",3 c #827C78",
",4 c #1D1100",
",5 c #9F9A97",
",6 c #B4B0AD",
",7 c #F5F4F4",
",8 c #D5D2D1",
",9 c #F3F3F3",
",@ c #EDECEC",
",# c #6D625C",
",; c #5D5148",
",: c #5F5249",
",= c #6B615A",
",+ c #B7B2B1",
",% c #C5C2C0",
",$ c #4C443E",
",( c #231400",
",) c #080500",
",[ c #6B6561",
",] c #CCCAC8",
"-. c #463427",
"-, c #3D2815",
"-- c #412D1D",
"-* c #9C9693",
"-a c #BCBAB7",
"-b c #61544C",
"-c c #5D4F47",
"-d c #5D5047",
"-e c #5F534B",
"-f c #8F8884",
"-g c #948F8C",
"-h c #BBB7B5",
"-i c #524338",
"-j c #A59E9A",
"-k c #594B42",
"-l c #5D5147",
"-m c #5E5048",
"-n c #736862",
"-o c #524A45",
"-p c #635C57",
"-q c #E2E0DF",
"-r c #443123",
"-s c #958C89",
"-t c #4D3E33",
"-u c #514337",
"-v c #53443A",
"-w c #524339",
"-x c #61554D",
"-y c #F8F8F7",
"-z c #8D8884",
"-A c #60534B",
"-B c #8F8781",
"-C c #473426",
"-D c #48362A",
"-E c #49382B",
"-F c #453325",
"-G c #5F544B",
"-H c #D1CECD",
"-I c #382D26",
"-J c #D5D3D1",
"-K c #EDEDED",
"-L c #908A85",
"-M c #422F20",
"-N c #432F20",
"-O c #433022",
"-P c #5E524A",
"-Q c #6D6763",
"-R c #030200",
"-S c #69625E",
"-T c #EEEDED",
"-U c #8C857F",
"-V c #433122",
"-W c #433021",
"-X c #432F21",
"-Y c #8A8481",
"-Z c #B6B2B0",
"-0 c #89827C",
"-1 c #60534A",
"-2 c #D1CFCD",
"-3 c #ABA6A4",
"-4 c #87807A",
"-5 c #62574F",
"-6 c #E4E3E2",
"-7 c #4C433E",
"-8 c #2D2016",
"-9 c #807772",
"-@ c #655A54",
"-# c #1D1000",
"-; c #483F39",
"-: c #E5E4E3",
"-= c #78716A",
"-+ c #443121",
"-% c #6C625A",
"-$ c #78726F",
"-( c #58504B",
"-) c #EDECEB",
"-[ c #F5F5F4",
"-] c #736961",
"*. c #423021",
"*, c #443122",
"*- c #71685F",
"** c #B8B4B2",
"*a c #85807C",
"*b c #F2F1F1",
"*c c #EDEDEC",
"*d c #70655E",
"*e c #423020",
"*f c #443223",
"*g c #736962",
"*h c #BDBAB7",
"*i c #8B8582",
"*j c #0C0700",
"*k c #E9E8E8",
"*l c #6E645E",
"*m c #453425",
"*n c #756C65",
"*o c #908B88",
"*p c #E7E5E3",
"*q c #6C615A",
"*r c #433020",
"*s c #463325",
"*t c #786D68",
"*u c #796E69",
"*v c #6A5F59",
"*w c #422F1F",
"*x c #7A706C",
"*y c #695E58",
"*z c #7A716C",
"*A c #6B5F59",
"*B c #412D1E",
"*C c #3F2B1A",
"*D c #3F2B19",
"*E c #7A706A",
"*F c #F9F9F9",
"*G c #8A847E",
"*H c #6A5F58",
"*I c #695E57",
"*J c #3E2918",
"*K c #443224",
"*L c #766C66",
"*M c #5B4D44",
"*N c #87807B",
"*O c #E5E4E4",
"*P c #63584F",
"*Q c #422D1F",
"*R c #453223",
"*S c #443326",
"*T c #786F6A",
"*U c #E3E1E1",
"*V c #3D2817",
"*W c #473528",
"*X c #655952",
"*Y c #49392C",
"*Z c #4F3F34",
"*0 c #514136",
"*1 c #4B3A30",
"*2 c #756B67",
"*3 c #E7E6E4",
"*4 c #3D2917",
"*5 c #48372A",
"*6 c #E7E6E5",
"*7 c #716661",
"*8 c #4B392C",
"*9 c #504036",
"*@ c #4F4035",
"*# c #4C3C30",
"*; c #786E68",
"*: c #655951",
"*= c #948D8A",
"*+ c #ECECEC",
"*% c #7A7269",
"*$ c #4B3B2F",
"*( c #473527",
"*) c #473427",
"*[ c #4B3B2E",
"*] c #928B87",
"a. c #9F9995",
"a, c #7A716B",
"a- c #BDB9B7",
"a* c #8C837F",
"aa c #57493F",
"ab c #584A40",
"ac c #544439",
"ad c #53433B",
"ae c #A9A4A1",
"af c #F5F5F5",
"ag c #ADA9A6",
"ah c #938D88",
"ai c #6C625B",
"aj c #756B65",
"ak c #D7D4D3",
"al c #F6F6F6",
"am c #B1ADAA",
"an c #AEA8A6",
"ao c #AAA5A2",
"ap c #ACA7A5",
"aq c #EFEEEE",
"ar c #B7B4B1",
"as c #ABA7A3",
"at c #B0ABA9",
"au c #C2BEBD",
"av c #ACA8A4",
"aw c #F4F3F3",
"ax c #FCFCFC",
"ay c #F9F9F8",
"................................................................................................................................",
"................................................................................................................................",
"................................................................................................................................",
"................................................................................................................................",
"................................................................................................................................",
"..................................................-R,E.@,j-#.J.k.k.k.J-#,j.@,E-R................................................",
".............................................g.@,4,(.m.m.m.m.m.m.m.m.m.m.m.m.m,(,4.@.g..........................................",
".........................................V.o.l.m.m.m.m.m-8-;-(.Y.Y.Y-(-;-8.m.m.m.m.m.l.o.V......................................",
".....................................-,4.m.m.m.m,k-S-Y,T.C.O.O.O.O.O.O.O.C,T-Y-S,k.m.m.m.m,4.-..................................",
"................................,-,j.l.m.m,*-p-g.C.O.O.O.O.O.O.O.O.O.O.O.O.O.O.O.C-g-p,*.m.m.l,j,-..............................",
"..............................,E.n.m.m.u,[,G.O.O.O.O-Z,X.3-:-)*b*b*b-)-:.3,X-Z.O.O.O.O,G,[.u.m.m.n,E............................",
".............................@.l.m.m,V,5.O.O.O,b-J-T,n.$.$.$.$.$.$.$.$.$.$.$,n-T-J,b.O.O.O,5,V.m.m.l.@..........................",
"...........................j.m.m,K,Q.B.O.O-h-q,d.$.$.$.$.$.$.$.$.$.$.$.$.$.$.$.$.$,d-q-h.O.O.B,Q,K.m.m.j........................",
"........................,j.m.m,F.;.O.O,6,2,d.$.$.$.$.$.$.$.$.$.$.$.$.$.$.$.$.$.$.$.$.$,d,2,6.O.O.;,F.m.m,j......................",
".......................j.m.m,y,G.O.O,W,7.$.$.$.$.$.$.$.$.$.$.$.$.$.$.$.$.$.$.$.$.$.$.$.$.$,7,W.O.O,G,y.m.m.j....................",
".....................@.m.m,s,z.O.O.1,d.$.$.$.$.$.$.$.$.$.$.$.$.$.$.$.$.$.$.$.$.$.$.$.$.$.$.$,d.1.O.O,z,s.m.m.@..................",
"...................V.l.m,k,t.O.O.3.$.$.$.$.$.$.$.$.$.$.$.$.$.$.$.$.$.$.$.$.$.$.$.$.$.$.$.$.$.$.$.3.O.O,t,k.m.l.V................",
".................,.W.m,*,l.O.O.4.$.$.$.$.$.$.$.$.$.$.$.$.$.$.$.$.$.$.$.$.$.$.$.$.$.$.$.$.$.$.$.$.$.4.O.O,l,*.m.W.,..............",
".................c.m.m,a.O.O,A.$.$.$.$.$.$.$.$.$.$.$.$.$.$.$.$.$.$.$.$.$.$.$.$.$.$.$.$.$.$.$.$.$.$.$,A.O.O,a.m.m.c..............",
"...............r.l.m.#.C.O,u,d.$.$.$.$.$.$.$.$.$.$.$.$.$.$.$.$.$.$.$.$.$.$.$.$.$.$.$.$.$.$.$.$.$.$.$,d,u.O.C.#.m.l.r............",
"...............t.m.X.;.O.:,v.$.$.$.$.$.$.$.$.$.$.$.$.$.$.$.$.$.$.$.$.$.$.$.$.$.$.$.$.$.$.$.$.$.$.$.$.$,v.:.O.;.X.m.t............",
".............r.l.m.Y.O.O.2.$.$.$.$.$.$.$.$.$.$.$.$.$.$.$.$.$.$.$.$.$.$.$.$.$.$.$.$.$.$.$.$.$.$.$.$.$.$.$.2.O.O.Y.m.l.r..........",
".............j.m.m.y.O,b,m.$.$.$.$.$.$.$.$.$.$.$.$.$.$.$.$.$.$.$.$.$.$.$.$.$.$.$.$.$.$.$.$.$.$.$.$.$.$.$,m,b.O.y.m.m.j..........",
"...........h.s.m.L.O.O.3.$.$.$.$.$.$.$.$.$.$.$.$.$.$.$.$.$.$.$.$.$.$.$.$.$.$.$.$*U*3.$.$.$.$.$.$.$.$.$.$.$.3.O.O.L.m.s.h........",
"...........i.m.m.M.O.:,c.$.$.$.$.$.$.$.$,]-i-r-A-K.$.$.$.$.$.$.$.$.$.$.$.$.$*F*M*V*4*:.$.$.$.$.$.$.$.$.$.$,c.:.O.M.m.m.i........",
"...........j.m.u.N.O.=.$.$.$.$.$.$.$.$.$-.-,-,-,-A.$.$.$.$.$.$.$.$.$.$.$.$.$*G-,-,-,-,a..$.$.$.$.$.$.$.$.$.$.=.O.N.u.m.j........",
"...........k.m.v.O.O.+.$.$.$.$.$.$.$.$,8-,-,-,-,-r.$.$.$.$.$.$.$.$.$.$.$.$.$*H-,-,-,-,a,.$.$.$.$.$.$.$.$.$.$.+.O.O.v.m.k........",
".........,.l.m.w.O.O.%.$.$.$.$.$.$.$.$,9---,-,-,-i.$.$.$.$.$.$.$.$.$.$.$.$.$,.-,-,-,*4a-.$.$.$.$.$.$.$.$.$.$.%.O.O.w.m.l.,......",
".........-.m.m.x.O.Z.$.$.$.$.$.$.$.$.$.$-*---,-.,].$.$.$.$.$.$.$.$.$.$.$.$.$.$*N*W*5*=.$.$.$.$.$.$.$.$.$.$.$.$.Z.O.x.m.m.-......",
".........*.m.m.y.O.0.$.$.$.$.$.$.$.$.$.$.$,9,8.$.$.$.$.$.$.$.$.$.$.$.$.$.$.$.$.$.$.$.$.$.$.$.$.$.$.$.$.$.$.$.$.0.O.y.m.m.*......",
".........a.m.m.z.O.1.$.$.$.$.$.$.$.$.$.$.$.$.$.$.$.$.$.$.$.$.$.$.$.$.$.$.$.$.$.$.$.$.$.$.$.$.$.$.$.$.$.$.$.$.$.1.O.z.m.m.a......",
".........b.m.m.A.O.2.$.$.$.$.$.$.$.$.$.$.$.$.$.$.$.$.$.$.$.$.$.$.$.$.$.$.$.$.$.$.$.$.$.$.$.$.$.$.$.$.$.$.$.$.$.2.O.A.m.m.b......",
".........c.m.m.B.O.3.$.$.$.$.$.$.$.$.$.$.$.$.$.$.$.$.$.$.$.$.$.$.$.$.$.$.$.$.$.$.$.$.$.$.$.$.$.$.$.$.$.$.$.$.$.3.O.B.m.m.c......",
".........b.m.m.C.O.4.$.$.$.$.$.$.$.$.$.$.$.$.$.$.$.$.$.$.$.$.$.$.$.$.$.$.$.$.$.$.$.$.$.$.$.$.$.$.$.$.$.$.$.$.$.4.O.C.m.m.b......",
".........d.m.m.D.O.5.$.$.$.$.$.$.$.$.$.$.$.$.$.$.$.$.$.$.$.$.$.$.$.$.$.$.$.$.$.$.$.$.$.$.$.$.$.$.$.$.$.$.$.$.$.5.O.D.m.m.d......",
".........e.m.m.E.O.6.$.$.$.$.$.$.$.$.$.$.$.$.$.$.$.$.$.$.$.$.$.$.$.$.$.$.$.$.$.$.$.$.$.$.$.$.$.$.$.$.$.$.$.$.$.6.O.E.m.m.e......",
".........f.m.m.F.O.7.$.$.$.$.$.$.$.$.$.$.$.$.$.$.$.$.$.$.$,m-[*c*k*p,e,e,e,e,e*O,o*6*+*bafal,n.$.$.$.$.$.$.$.$.7.O.F.m.m.f......",
".........g.m.m.G.O.8.(.$.$.$.$.$.$.$.$,@-a-j-s-B-L-U-0-4-9-=-]*d*l*q*q*v*y*A*I*P*X*7*%a*agamar*6.$.$.$.$.$.$.(.8.O.G.m.m.g......",
"...........n.m.H.O.O.).$.$.$.$.$.$.$,X,#-b-k-t-C-r-V-r-V-V-V-O-W-O*.-W*w*w*B*J*Q*Y*8*$aaahan.P.:ax.$.$.$.$.$.).O.O.H.m.n........",
"...........o.m.I.P.O.[.$.$.$.$.$.$,c,Y,;-c-l-u-D-M-W-M-W-W-W*.*e-W*r-V-X-M*C-M*R*Z*9*(abaiaoasavay.$.$.$.$.$.[.O.P.I.m.o........",
"...........p.m.m.Q.O.],d.$.$.$.$.$,R,Z,:-d-m-v-E-N-X-W-W-W-O-W-V-N-r-W-W-O*D-V*S*0*@*)ac-%apat,p,d.$.$.$.$,d.].O.Q.m.m.p........",
"...........q.l.m.R.O.O,e.$.$.$.$.$,m,0,=-e-e-w-F-O-O-O-W-O-+*,*f*m*s-.-.-.*f*K-.*1*#*[adaj.Aauaw.$.$.$.$.$,e.O.O.R.m.l.q........",
".............o.m.S.N.O,f,n.$.$.$.$.$,1,+-f-n-x-G-P,:-1-5-@-%*-*g*n*t*u*x*z*E*L*T*2*;*]aeakaq.$.$.$.$.$.$,n,f.O.N.S.m.o..........",
".............i.m.m.9.O.O,o.$.$.$.$.$.$.$.$.$.$.$.$.$.$.$.$.$.$.$.$.$.$.$.$.$.$.$.$.$.$.$.$.$.$.$.$.$.$.$,o.O.O.9.m.m.i..........",
"...............J.m.I,..O,p,m.$.$.$.$.$.$.$.$.$.$.$.$.$.$.$.$.$.$.$.$.$.$.$.$.$.$.$.$.$.$.$.$.$.$.$.$.$,m,p.O,..I.m.J............",
"...............K.m.m,,.O.O.1.$.$.$.$.$.$.$.$.$.$.$.$.$.$.$.$.$.$.$.$.$.$.$.$.$.$.$.$.$.$.$.$.$.$.$.$.$.1.O.O,,.m.m.K............",
".................T.m.X,g.O.O,B.$.$.$.$.$.$.$.$.$.$.$.$.$.$.$.$.$.$.$.$.$.$.$.$.$.$.$.$.$.$.$.$.$.$.$,B.O.O,g.X.m.T..............",
".................U.l.m,h.N.O,C,H.$.$.$.$.$.$.$.$.$.$.$.$.$.$.$.$.$.$.$.$.$.$.$.$.$.$.$.$.$.$.$.$.$,H,C.O.N,h.m.l.U..............",
"...................@.m.m,q,w.O,I,L.$.$.$.$.$.$.$.$.$.$.$.$.$.$.$.$.$.$.$.$.$.$.$.$.$.$.$.$.$.$.$,L,I.O,w,q.m.m.@................",
".....................o.m.m,x.B.O,M.).$.$.$.$.$.$.$.$.$.$.$.$.$.$.$.$.$.$.$.$.$.$.$.$.$.$.$.$.$.),M.O.B,x.m.m.o..................",
"....................,-.J.m.m,D.C.O,S,2,n.$.$.$.$.$.$.$.$.$.$.$.$.$.$.$.$.$.$.$.$.$.$.$.$.$,n,2,S.O.C,D.m.m.J,-..................",
"......................,i.W.m.m,J,N.O.O,%,R.$.$.$.$.$.$.$.$.$.$.$.$.$.$.$.$.$.$.$.$.$.$.$,R,%.O.O,N,J.m.m.W,i....................",
"........................,r.k.m.m,O,T.O.O.:.5-y.$.$.$.$.$.$.$.$.$.$.$.$.$.$.$.$.$.$.$-y.5.:.O.O,T,O.m.m.k,r......................",
"...........................g.T.m.m,U,3.C.O.O.:-H,H,n.$.$.$.$.$.$.$.$.$.$.$.$.$,n,H-H.:.O.O.C,3,U.m.m.T.g........................",
".............................h.j,P.m.m,$-g.O.O.O.O.Z-2-6,v,d.$.$.$.$.$,d,v-6-2.Z.O.O.O.O-g,$.m.m,P.j.h..........................",
".................................i.n.m.m.m-o-z.P.O.O.O.O.O.O***h,f*h**.O.O.O.O.O.O.P-z-o.m.m.m.n.i..............................",
"..................................,-.b,(.m.m.m-I-Q.F-3.O.O.O.O.O.O.O.O.O.O.O-3.F-Q-I.m.m.m,(.b,-................................",
"......................................,).j,(.m.m.m.m.u-7,x-$*a*i*o*i*a-$,x-7.u.m.m.m.m,(.j,)....................................",
"..........................................,-.e.T.l.m.m.m.m.m.m.m.m.m.m.m.m.m.m.m.l.T.e,-........................................",
".................................................q.*.j.T.s,P.m.m.m.m.m,P.s.T.j.*.q..............................................",
"..........................................................-R,r*j,E*j,r-R........................................................",
"................................................................................................................................",
"................................................................................................................................",
"................................................................................................................................"
};
